<?xml version="1.0" standalone="no"?>
<!DOCTYPE svg PUBLIC "-//W3C//DTD SVG 20010904//EN"
 "http://www.w3.org/TR/2001/REC-SVG-20010904/DTD/svg10.dtd">
<svg version="1.0" xmlns="http://www.w3.org/2000/svg"
 width="512.000000pt" height="512.000000pt" viewBox="0 0 512.000000 512.000000"
 preserveAspectRatio="xMidYMid meet">
<metadata>
Created by potrace 1.14, written by Peter Selinger 2001-2017
</metadata>
<g transform="translate(0.000000,512.000000) scale(0.100000,-0.100000)"
fill="#000000" stroke="none">
<path d="M2467 5103 c-70 -24 -139 -91 -182 -175 -19 -39 -35 -77 -35 -84 0
-20 -7 -18 -64 20 -147 98 -286 84 -394 -40 -84 -94 -93 -208 -27 -340 19 -40
58 -98 85 -127 l50 -55 0 -384 c0 -434 -6 -402 85 -463 136 -90 312 -129 575
-129 257 0 419 35 562 121 105 63 98 29 98 470 l0 385 50 55 c27 29 66 87 85
127 66 132 57 246 -27 340 -108 124 -247 138 -394 40 -56 -37 -64 -40 -64 -21
0 25 -59 133 -95 175 -75 86 -203 122 -308 85z m192 -116 c43 -28 81 -86 112
-167 l19 -50 -60 0 -60 0 0 -50 0 -50 96 0 96 0 55 50 c113 103 193 129 273
88 144 -74 139 -238 -12 -403 l-58 -63 0 -236 0 -235 -33 -25 c-35 -27 -114
-65 -134 -66 -10 0 -13 40 -13 165 l0 165 -50 0 -50 0 0 -179 c0 -140 -3 -180
-13 -184 -8 -3 -40 -8 -73 -11 -32 -4 -78 -9 -101 -12 l-43 -5 0 195 0 196
-50 0 -50 0 0 -195 0 -195 -62 6 c-35 3 -85 9 -113 13 l-50 6 -3 183 -2 182
-50 0 -50 0 0 -196 0 -195 -22 6 c-13 4 -52 21 -88 38 l-65 32 -3 274 -2 273
-58 63 c-118 129 -149 248 -87 337 83 119 207 111 348 -23 28 -27 59 -49 68
-49 24 0 45 30 58 85 15 62 54 149 86 191 58 75 165 93 244 41z"/>
<path d="M1669 3395 c-97 -16 -221 -52 -401 -116 -308 -108 -508 -154 -721
-166 -82 -4 -123 -11 -133 -20 -11 -11 -14 -46 -14 -149 l0 -134 -184 0 c-154
0 -187 -3 -200 -16 -14 -14 -16 -149 -16 -1339 0 -1190 2 -1325 16 -1339 14
-14 128 -16 1109 -16 l1094 0 15 -28 c8 -15 32 -37 54 -50 38 -21 50 -22 271
-22 212 0 235 2 271 20 22 11 47 34 55 50 l16 30 1094 0 c981 0 1095 2 1109
16 14 14 16 149 16 1339 0 1190 -2 1325 -16 1339 -13 13 -46 16 -200 16 l-184
0 0 134 c0 103 -3 138 -14 149 -10 9 -51 16 -133 20 -219 12 -390 52 -738 173
-237 82 -362 112 -490 120 -256 16 -501 -87 -721 -303 l-60 -59 -75 69 c-257
241 -522 332 -820 282z m356 -116 c145 -44 267 -121 398 -248 l87 -85 0 -1029
0 -1030 -44 41 c-118 109 -282 203 -423 244 -65 19 -101 23 -218 22 -171 0
-232 -14 -565 -126 -331 -112 -472 -145 -682 -163 l-78 -7 0 1055 0 1054 88 7
c216 17 394 59 701 166 210 72 321 104 420 120 87 14 236 4 316 -21z m1465 6
c41 -8 188 -53 325 -100 345 -116 505 -155 713 -170 l92 -8 0 -1148 0 -1149
-52 0 c-86 0 -309 27 -584 69 -411 63 -524 74 -724 68 -186 -6 -301 -25 -437
-71 -70 -24 -74 -24 -113 -8 -22 9 -40 20 -40 24 0 13 117 111 195 163 156
104 266 139 435 138 142 0 244 -24 515 -117 275 -95 443 -140 601 -161 l51 -6
7 47 c3 26 5 49 3 50 -2 2 -56 13 -121 24 -150 25 -176 33 -496 140 -331 111
-395 125 -570 125 -160 0 -217 -14 -365 -86 -94 -46 -176 -101 -272 -185 l-43
-37 0 1030 0 1030 88 85 c155 150 313 238 480 268 64 12 220 4 312 -15z
m-1489 -2210 c92 -23 216 -86 306 -154 76 -58 151 -128 142 -134 -2 -1 -21
-10 -42 -20 -36 -16 -39 -16 -110 7 -171 58 -264 71 -507 70 -236 -1 -254 -2
-735 -78 -200 -32 -411 -56 -492 -56 l-63 0 0 45 0 45 44 0 c163 0 422 58 716
159 113 39 239 81 280 93 174 49 329 57 461 23z m-56 -335 c101 -10 257 -40
313 -61 l23 -9 -25 -42 c-13 -24 -29 -62 -36 -85 l-11 -43 -854 0 -855 0 0 49
0 49 78 7 c196 15 307 29 577 70 478 72 602 82 790 65z m1681 -15 c65 -8 205
-29 309 -45 258 -40 385 -57 480 -64 44 -4 108 -9 143 -12 l62 -6 0 -49 0 -49
-855 0 -854 0 -11 43 c-7 23 -23 61 -36 85 l-25 42 23 9 c42 16 207 51 280 61
95 12 333 4 484 -15z"/>
<path d="M1669 2845 c-97 -16 -219 -52 -412 -119 -143 -50 -268 -89 -375 -116
l-44 -11 7 -42 c4 -23 11 -46 15 -50 12 -13 147 25 440 123 317 106 401 124
560 118 90 -4 132 -11 193 -31 42 -15 79 -27 82 -27 11 0 46 83 38 90 -16 15
-130 52 -201 66 -88 17 -200 17 -303 -1z"/>
<path d="M1706 2299 c-103 -14 -198 -40 -456 -127 -129 -43 -275 -89 -323
-102 l-88 -23 6 -41 c4 -23 11 -45 15 -50 13 -14 134 19 435 120 154 51 321
101 370 110 132 24 274 16 388 -23 l88 -30 13 26 c33 64 32 67 -36 94 -119 47
-278 65 -412 46z"/>
<path d="M1617 1731 c-49 -11 -218 -62 -375 -114 -158 -53 -313 -101 -345
-108 l-59 -13 6 -39 c11 -68 11 -68 111 -42 50 13 178 54 285 90 366 125 493
153 640 142 64 -5 174 -33 242 -62 14 -5 22 3 40 39 12 25 19 48 15 52 -3 3
-45 20 -94 36 -79 28 -103 31 -233 34 -116 3 -163 0 -233 -15z"/>
<path d="M3852 2784 c-60 -30 -89 -64 -129 -149 -26 -55 -28 -70 -28 -175 0
-96 4 -124 23 -171 27 -68 81 -133 133 -160 l39 -19 0 -275 0 -275 50 0 50 0
0 279 0 279 23 6 c39 10 92 63 124 123 82 154 64 367 -41 481 -76 83 -154 101
-244 56z"/>
<path d="M3092 2553 c3 -187 6 -214 26 -264 27 -68 81 -133 133 -160 l39 -19
0 -275 0 -275 50 0 50 0 0 275 0 275 39 19 c52 27 106 92 133 160 20 50 23 77
26 264 l3 207 -49 0 -50 0 -4 -192 c-4 -175 -6 -198 -27 -246 -29 -65 -80
-112 -123 -112 -24 0 -41 10 -72 43 -61 63 -68 95 -73 315 l-5 192 -50 0 -49
0 3 -207z"/>
<path d="M3290 2610 l0 -150 50 0 50 0 0 150 0 150 -50 0 -50 0 0 -150z"/>
</g>
</svg>
