<svg id="_0410_breakfast" data-name="0410_breakfast" xmlns="http://www.w3.org/2000/svg" viewBox="0 0 500 500" data-imageid="breakfast-60" imageName="Breakfast" class="illustrations_image" style="width: 166px;"><defs><style>.cls-1_breakfast-60{fill:#68e1fd;}.cls-2_breakfast-60{fill:#231f20;}.cls-3_breakfast-60{fill:#fff;}.cls-4_breakfast-60{fill:#d1d3d4;}</style></defs><g id="Milk_breakfast-60"><polygon class="cls-1_breakfast-60 targetColor" points="145.16 274.22 145.16 168.18 220.87 168.18 220.87 263.79 145.16 274.22" style="fill: rgb(104, 225, 253);"/><path class="cls-2_breakfast-60" d="M145.16,274.92a.65.65,0,0,1-.46-.18.66.66,0,0,1-.24-.52v-106a.7.7,0,0,1,.7-.7h75.71a.7.7,0,0,1,.7.7v95.61a.7.7,0,0,1-.6.69l-75.72,10.43Zm.7-106V273.41l74.31-10.23v-94.3Z"/><rect class="cls-2_breakfast-60" x="114.27" y="168.18" width="30.89" height="122.34"/><path class="cls-2_breakfast-60" d="M145.16,291.22H114.27a.7.7,0,0,1-.7-.7V168.18a.7.7,0,0,1,.7-.7h30.89a.71.71,0,0,1,.7.7V290.52A.7.7,0,0,1,145.16,291.22ZM115,289.82h29.49V168.88H115Z"/><polygon class="cls-2_breakfast-60" points="114.27 168.18 134.63 130.51 145.16 168.18 114.27 168.18"/><path class="cls-2_breakfast-60" d="M145.16,168.88H114.27a.7.7,0,0,1-.62-1L134,130.18a.73.73,0,0,1,.7-.37.72.72,0,0,1,.59.51L145.83,168a.69.69,0,0,1-.67.89Zm-29.72-1.4h28.79l-9.81-35.11Z"/><polygon class="cls-1_breakfast-60 targetColor" points="134.63 130.51 194.62 130.51 220.87 168.18 145.16 168.18 134.63 130.51" style="fill: rgb(104, 225, 253);"/><path class="cls-2_breakfast-60" d="M220.87,168.88H145.16a.71.71,0,0,1-.68-.51L134,130.7a.7.7,0,0,1,.12-.61.69.69,0,0,1,.56-.28h60a.68.68,0,0,1,.57.3l26.25,37.67a.71.71,0,0,1,.05.73A.7.7,0,0,1,220.87,168.88Zm-75.18-1.4h73.84l-25.27-36.27H135.55Z"/><rect class="cls-1_breakfast-60 targetColor" x="134.63" y="117.49" width="61.11" height="13.02" style="fill: rgb(104, 225, 253);"/><path class="cls-2_breakfast-60" d="M195.73,131.21h-61.1a.7.7,0,0,1-.7-.7v-13a.7.7,0,0,1,.7-.7h61.1a.7.7,0,0,1,.7.7v13A.7.7,0,0,1,195.73,131.21Zm-60.4-1.4H195V118.19h-59.7Z"/></g><g id="Cup_breakfast-60"><ellipse class="cls-3_breakfast-60" cx="335.75" cy="267.02" rx="67.53" ry="12.03"/><path class="cls-2_breakfast-60" d="M335.75,279.76c-44.31,0-68.23-6.56-68.23-12.74s23.92-12.73,68.23-12.73S404,260.85,404,267,380.07,279.76,335.75,279.76Zm0-24.07c-40,0-66.83,5.86-66.83,11.33s26.86,11.34,66.83,11.34,66.83-5.86,66.83-11.34S375.73,255.69,335.75,255.69Z"/><ellipse class="cls-2_breakfast-60" cx="331.91" cy="266.53" rx="31.81" ry="3.58"/><path class="cls-2_breakfast-60" d="M331.91,270.81c-3.33,0-32.51-.12-32.51-4.28s29.18-4.27,32.51-4.27,32.5.12,32.5,4.27S335.23,270.81,331.91,270.81Zm-31-4.28c1.44,1.22,12.86,2.88,31,2.88s29.58-1.66,31-2.88c-1.44-1.21-12.85-2.87-31-2.87S302.33,265.32,300.88,266.53Zm62.16.12h0Z"/><path class="cls-2_breakfast-60" d="M280.62,237.18a48.94,48.94,0,0,1-16.6-3.11,56.62,56.62,0,0,1-22.78-15.37c-6.83-7.91-8.87-16.09-5.6-22.43a14.11,14.11,0,0,1,8.65-7.15c13.93-4.44,36.68,7.26,37.64,7.76a2.1,2.1,0,0,1-1.94,3.73c-.22-.12-22.17-11.39-34.43-7.49a10,10,0,0,0-6.19,5.07c-2.44,4.75-.6,11.22,5,17.76,10.27,11.89,30.59,20.87,46.83,15.31a2.1,2.1,0,0,1,1.36,4A37,37,0,0,1,280.62,237.18Z"/><path class="cls-3_breakfast-60" d="M395.45,181c0,6.89,2.5,87-61.59,87s-61.59-80.08-61.59-87,27.58-12.48,61.59-12.48S395.45,174.09,395.45,181Z"/><path class="cls-2_breakfast-60" d="M333.86,268.65c-16.34,0-29.8-5.21-40-15.47-19.75-19.9-22.45-53.31-22.31-71.45V181c0-8.25,31.67-13.18,62.29-13.18s62.29,4.93,62.29,13.18v.75c.14,18.14-2.56,51.55-22.31,71.45C363.66,263.44,350.21,268.65,333.86,268.65Zm0-99.45C297.44,169.2,273,175.29,273,181v.76c-.33,41.76,13.58,62.06,21.9,70.45,9.92,10,23,15.06,39,15.06s29.08-5.07,39-15.06c8.32-8.39,22.23-28.69,21.9-70.45V181C394.75,175.29,370.28,169.2,333.86,169.2Z"/><path class="cls-3_breakfast-60" d="M395.45,181c0,2.05-2.46,4-6.81,5.7-10.21,4-30.91,6.77-54.78,6.77s-44.56-2.75-54.78-6.77c-4.35-1.71-6.81-3.65-6.81-5.7,0-6.89,27.58-12.47,61.59-12.47S395.45,174.09,395.45,181Z"/><path class="cls-2_breakfast-60" d="M333.86,194.15c-23.25,0-44.34-2.61-55-6.82-4.81-1.9-7.24-4-7.24-6.35,0-8.25,31.67-13.17,62.28-13.17s62.29,4.92,62.29,13.17c0,2.32-2.44,4.45-7.25,6.35C378.2,191.54,357.11,194.15,333.86,194.15Zm0-24.94c-36.42,0-60.88,6.08-60.88,11.77,0,1.64,2.25,3.43,6.36,5.05,10.54,4.14,31.43,6.72,54.52,6.72s44-2.58,54.53-6.72c4.1-1.62,6.36-3.41,6.36-5.05C394.75,175.29,370.28,169.21,333.86,169.21Z"/><path class="cls-1_breakfast-60 targetColor" d="M388.64,186.68c-10.21,4-30.91,6.77-54.78,6.77s-44.56-2.75-54.78-6.77c10.22-4,30.92-6.76,54.78-6.76S378.43,182.67,388.64,186.68Z" style="fill: rgb(104, 225, 253);"/><path class="cls-2_breakfast-60" d="M333.86,194.15c-23.25,0-44.34-2.61-55-6.82a.7.7,0,0,1-.44-.65.71.71,0,0,1,.44-.65c10.7-4.2,31.79-6.81,55-6.81s44.34,2.61,55,6.81a.69.69,0,0,1,.44.65.68.68,0,0,1-.44.65C378.2,191.54,357.11,194.15,333.86,194.15Zm-52.74-7.47c11,3.76,30.89,6.07,52.74,6.07s41.74-2.31,52.75-6.07c-11-3.76-30.9-6.06-52.75-6.06S292.13,182.92,281.12,186.68Z"/><path class="cls-4_breakfast-60" d="M358.7,221.32a.76.76,0,0,1-.77-.77V192.39a.77.77,0,1,1,1.54,0v28.16A.76.76,0,0,1,358.7,221.32Z"/><path class="cls-4_breakfast-60" d="M369.79,242.91H347.61a.78.78,0,0,1-.77-.78v-13a.77.77,0,0,1,.31-.62l11.33-8.57a.79.79,0,0,1,.95,0l10.84,8.57a.79.79,0,0,1,.29.61v13A.78.78,0,0,1,369.79,242.91Zm-21.4-1.55H369V229.49l-10.07-8-10.55,8Z"/></g><g id="Plate_breakfast-60"><ellipse class="cls-3_breakfast-60" cx="250" cy="331.19" rx="207.25" ry="51.31"/><path class="cls-2_breakfast-60" d="M250,383.21c-55.41,0-107.52-5.35-146.71-15-39.49-9.78-61.24-22.91-61.24-37s21.75-27.18,61.24-37c39.19-9.71,91.3-15.05,146.71-15.05s107.52,5.34,146.71,15.05c39.49,9.78,61.24,22.9,61.24,37s-21.75,27.19-61.24,37C357.52,377.86,305.41,383.21,250,383.21Zm0-102.63c-113.89,0-206.55,22.7-206.55,50.61S136.11,381.81,250,381.81s206.55-22.71,206.55-50.62S363.89,280.58,250,280.58Z"/><path class="cls-4_breakfast-60" d="M250,367.14c-99,0-176.62-17.63-176.62-40.13S151,286.88,250,286.88,426.62,304.51,426.62,327,349,367.14,250,367.14Zm0-78.72c-46.92,0-91,4.09-124.17,11.51C93.48,307.17,74.92,317,74.92,327s18.56,19.83,50.91,27.08c33.15,7.42,77.25,11.5,124.17,11.5s91-4.08,124.17-11.5c32.35-7.25,50.91-17.11,50.91-27.08s-18.56-19.84-50.91-27.08C341,292.51,296.92,288.42,250,288.42Z"/></g><g id="Toast_breakfast-60"><path class="cls-2_breakfast-60" d="M76,312.53l1.71,13.06s101.7,29.56,108,28,84.36-40.21,84.36-40.21,9.85,3.15,13.4-.79-4.34-20.1-4.34-20.1L78.94,313"/><path class="cls-2_breakfast-60" d="M185.2,354.32c-11,0-103.6-26.88-107.64-28.06a.69.69,0,0,1-.5-.58l-1.71-13.06a.7.7,0,1,1,1.39-.18l1.65,12.61c28.56,8.29,102.21,29.13,107.2,27.85,6.16-1.54,83.43-39.77,84.22-40.16a.72.72,0,0,1,.52,0c.09,0,9.47,3,12.67-.59,2.56-2.85-2-14.19-4.24-18.88L79,313.67a.7.7,0,1,1-.14-1.39l200.24-20.5a.7.7,0,0,1,.7.39c.83,1.7,8,16.71,4.23,20.88-3.51,3.89-12.17,1.57-13.86,1.07-5.69,2.81-78.06,38.59-84.25,40.14A3.49,3.49,0,0,1,185.2,354.32Z"/><path class="cls-3_breakfast-60" d="M76,312.53,180.5,275.92l-.12-.09a2.29,2.29,0,0,1,1-4.13c13.74-1.78,49.27-5.35,69.63,2.17,25.62,9.46,34.26,23,31.52,25.7s-13,.71-13,.71-82.39,41-84.75,41S76,312.53,76,312.53Z"/><path class="cls-2_breakfast-60" d="M184.83,342c-2.39,0-98.07-25.82-109-28.77a.69.69,0,0,1,0-1.33l103.41-36.24a3,3,0,0,1,2.11-4.62c14.24-1.85,49.55-5.34,70,2.2,21.54,8,31.27,18.94,32.35,24a2.93,2.93,0,0,1-.58,2.87c-2.77,2.7-11.55,1.27-13.38.94C255.42,308.1,187.22,342,184.83,342ZM78.41,312.44c37,10,104.06,28,106.44,28.13,2.4-.41,51.81-24.69,84.42-40.92a.66.66,0,0,1,.44-.06c2.75.53,10.34,1.46,12.37-.52a1.74,1.74,0,0,0,.19-1.57c-1-4.77-10.46-15.22-31.46-23-20.12-7.43-55.17-4-69.3-2.12a1.54,1.54,0,0,0-1.33,1.18,1.57,1.57,0,0,0,.61,1.69l.12.09a.69.69,0,0,1,.29.66.7.7,0,0,1-.46.56Z"/><path class="cls-2_breakfast-60" d="M76,287.82l1.71,13.07s101.7,29.56,108,28,84.36-40.2,84.36-40.2,9.85,3.15,13.4-.79-4.34-20.1-4.34-20.1L78.94,288.27"/><path class="cls-2_breakfast-60" d="M185.2,329.62c-11,0-103.6-26.88-107.64-28.06a.71.71,0,0,1-.5-.58l-1.71-13.06a.7.7,0,1,1,1.39-.19l1.65,12.61c28.56,8.3,102.21,29.13,107.2,27.85,6.16-1.53,83.43-39.76,84.22-40.15a.72.72,0,0,1,.52,0c.09,0,9.47,3,12.67-.59,2.56-2.85-2-14.2-4.24-18.89L79,289a.7.7,0,1,1-.14-1.39l200.24-20.5a.69.69,0,0,1,.7.39c.83,1.7,8,16.71,4.23,20.88-3.51,3.89-12.17,1.57-13.86,1.07-5.69,2.81-78.06,38.59-84.25,40.13A2.85,2.85,0,0,1,185.2,329.62Z"/><path class="cls-3_breakfast-60" d="M76,287.82l104.46-36.6-.12-.09a2.29,2.29,0,0,1,1-4.13c13.74-1.78,49.27-5.35,69.63,2.16,25.62,9.46,34.26,23,31.52,25.71s-13,.7-13,.7-82.39,41-84.75,41S76,287.82,76,287.82Z"/><path class="cls-2_breakfast-60" d="M184.83,317.27c-2.39,0-98.07-25.83-109-28.77a.69.69,0,0,1-.52-.65.71.71,0,0,1,.47-.69l103.41-36.23a3,3,0,0,1,2.11-4.62c14.24-1.85,49.55-5.34,70,2.2,21.54,7.95,31.27,18.93,32.35,24a2.93,2.93,0,0,1-.58,2.87c-2.77,2.7-11.55,1.27-13.38.93C255.42,283.4,187.22,317.27,184.83,317.27ZM78.41,287.74c37,10,104.06,28,106.44,28.13,2.4-.41,51.81-24.7,84.42-40.92a.66.66,0,0,1,.44-.06c2.75.52,10.34,1.46,12.37-.52a1.75,1.75,0,0,0,.19-1.58c-1-4.76-10.46-15.21-31.46-23-20.12-7.43-55.17-4-69.3-2.12a1.53,1.53,0,0,0-1.33,1.18,1.55,1.55,0,0,0,.61,1.68l.12.09a.71.71,0,0,1,.29.67.7.7,0,0,1-.46.56Z"/><path class="cls-4_breakfast-60" d="M235.82,271.31a.77.77,0,0,1-.1-1.54l11.43-1.58a.79.79,0,0,1,.87.66.78.78,0,0,1-.66.88l-11.43,1.57Z"/><path class="cls-4_breakfast-60" d="M214.54,280.38a.78.78,0,0,1-.57-1.3l9.06-9.86a.77.77,0,0,1,1.09,0,.76.76,0,0,1,0,1.09l-9.06,9.86A.82.82,0,0,1,214.54,280.38Z"/><path class="cls-4_breakfast-60" d="M180.5,276.7a.78.78,0,0,1-.76-.66.76.76,0,0,1,.65-.88l17.08-2.63a.77.77,0,0,1,.23,1.53l-17.08,2.63Z"/><path class="cls-4_breakfast-60" d="M193.64,295.36a.78.78,0,0,1-.75-.61l-2.37-10.24a.79.79,0,0,1,.58-.93.78.78,0,0,1,.93.58l2.37,10.25a.78.78,0,0,1-.58.92A.57.57,0,0,1,193.64,295.36Z"/><path class="cls-4_breakfast-60" d="M176.3,291.41h0l-15-.79a.77.77,0,0,1,.08-1.54l15,.79a.77.77,0,0,1,0,1.54Z"/><path class="cls-4_breakfast-60" d="M144,276.83a.78.78,0,0,1-.18-1.53l16.95-3.94a.78.78,0,1,1,.35,1.51l-16.95,3.94Z"/><path class="cls-4_breakfast-60" d="M206.26,260.67a.78.78,0,0,1-.08-1.55L218,257.94a.77.77,0,0,1,.15,1.54l-11.83,1.18Z"/><path class="cls-4_breakfast-60" d="M140.82,292.2a.76.76,0,0,1-.48-.17l-7.49-5.91a.77.77,0,0,1,1-1.21l7.49,5.91a.77.77,0,0,1,.13,1.09A.78.78,0,0,1,140.82,292.2Z"/><path class="cls-4_breakfast-60" d="M186.94,303.24h-.13l-15.38-2.76a.77.77,0,0,1-.62-.9.78.78,0,0,1,.9-.63l15.37,2.76a.77.77,0,0,1,.62.9A.76.76,0,0,1,186.94,303.24Z"/><path class="cls-4_breakfast-60" d="M181.42,265.79a.78.78,0,0,1-.36-1.46l11-5.91a.78.78,0,0,1,.73,1.37l-11,5.91A.81.81,0,0,1,181.42,265.79Z"/><path class="cls-4_breakfast-60" d="M111.33,283.55a2.87,2.87,0,0,1-.71-.06.78.78,0,0,1-.49-1,.78.78,0,0,1,1-.5c.92.17,8.35-.88,15-2a.78.78,0,0,1,.26,1.53C122.52,282.19,114,283.55,111.33,283.55Z"/></g><g id="Egg_breakfast-60"><path class="cls-3_breakfast-60" d="M408,302.69c-11.5-6.16-23.86-11-36.39-8.52-6.45,1.27-12.63,4.47-19.2,4.15-12.5-.6-22.89-5.18-35.34-.2-3,1.19-5.78,2.83-8.88,3.62-4.33,1.1-8.87.45-13.33.55-17.47.41-33.83,9-50,15.1-5.61,2.1-11.27,4.24-16.26,7.56s-9.3,8-11,13.72c-3.7,12.09,4.48,21.85,15.84,24.47,5,1.14,10.2.69,15.29.06,19.84-2.46,39.87-7.42,59.59-4.09,11,1.86,21.94,6.3,33,4.68,8.83-1.3,16.65-6.34,25.23-8.78,18.92-5.4,41.63.85,57.22-14.37,11.91-11.64,5.52-25.68-7-33C413.87,306,411,304.28,408,302.69Z"/><path class="cls-2_breakfast-60" d="M336.34,364.84c-6.2,0-12.37-1.48-18.37-2.92-3.22-.77-6.55-1.57-9.82-2.12-15.06-2.54-30.58-.17-45.6,2.12-4.52.69-9.19,1.4-13.78,2-5,.62-10.33,1.13-15.54-.07-6.51-1.5-11.93-5.27-14.87-10.35a18.45,18.45,0,0,1-1.48-15c2.07-6.79,7.31-11.42,11.33-14.1,5.09-3.39,10.84-5.55,16.4-7.64,3.57-1.34,7.23-2.83,10.76-4.28,12.66-5.18,25.75-10.53,39.48-10.86,1.36,0,2.75,0,4.09,0a24.69,24.69,0,0,0,14.77-2.79c1-.47,2.06-.95,3.11-1.37,8.86-3.54,16.6-2.36,24.81-1.11a104.12,104.12,0,0,0,10.82,1.26c4.11.19,8-1,12.15-2.27a69.2,69.2,0,0,1,6.89-1.86c13.49-2.66,26.78,3.19,36.85,8.59h0c3.12,1.67,6.16,3.43,8.72,4.93,7.65,4.48,12.72,11.24,13.56,18.07.7,5.73-1.52,11.28-6.41,16.06-10.29,10.06-23.76,10.92-36.78,11.75-7,.45-14.16.91-20.74,2.79a86.49,86.49,0,0,0-10.24,3.87c-4.82,2-9.79,4.16-15.08,4.93A34.14,34.14,0,0,1,336.34,364.84Zm-42.15-7.54a85.48,85.48,0,0,1,14.19,1.12c3.32.56,6.67,1.37,9.92,2.14,7.5,1.8,15.25,3.66,22.87,2.54,5.11-.75,10-2.83,14.73-4.84a89.56,89.56,0,0,1,10.41-3.93c6.72-1.92,14-2.38,21-2.83,13.36-.86,26-1.67,35.89-11.36,4.57-4.46,6.64-9.61,6-14.89-.78-6.4-5.59-12.77-12.87-17-2.55-1.5-5.57-3.25-8.67-4.91h0c-9.86-5.28-22.86-11-35.92-8.45a69.34,69.34,0,0,0-6.75,1.82c-4.06,1.26-8.27,2.57-12.63,2.34a105.84,105.84,0,0,1-11-1.28c-8-1.21-15.58-2.37-24.08,1-1,.41-2,.88-3,1.34A25.92,25.92,0,0,1,298.9,303c-1.32,0-2.68-.07-4,0-13.47.32-26.44,5.63-39,10.76-3.54,1.45-7.2,2.95-10.79,4.29-5.49,2.06-11.17,4.2-16.12,7.49-3.83,2.56-8.82,7-10.77,13.35a17.14,17.14,0,0,0,1.35,13.89c2.75,4.74,7.84,8.27,14,9.68,5,1.15,10.17.65,15.05.05,4.58-.57,9.24-1.28,13.75-2C272.81,358.94,283.52,357.3,294.19,357.3Z"/><path class="cls-1_breakfast-60 targetColor" d="M363.44,307.66c.83,7.52-16.45,15.59-38.6,18s-40.77-1.69-41.59-9.21,15.72-22,37.87-24.41S362.62,300.14,363.44,307.66Z" style="fill: rgb(104, 225, 253);"/><path class="cls-2_breakfast-60" d="M312.28,327.09c-16.75,0-29-4.06-29.73-10.54-.9-8.18,16-22.71,38.49-25.18s42.2,8,43.1,16.21h0c.88,8-16.35,16.28-39.22,18.8A117.1,117.1,0,0,1,312.28,327.09Zm15.61-34.7a61.66,61.66,0,0,0-6.7.37c-22.74,2.5-38,17-37.25,23.64.77,7,19.47,10.93,40.83,8.59s38.75-10.25,38-17.26C362.09,301.79,347.42,292.39,327.89,292.39Z"/></g></svg>