<svg version="1.1" id="Layer_1" xmlns="http://www.w3.org/2000/svg" xmlns:xlink="http://www.w3.org/1999/xlink" x="0px" y="0px" viewBox="0 0 500 500" style="width: 166px;" xml:space="preserve" data-imageid="meal-53" imageName="Meal" class="illustrations_image">
<style type="text/css">
	.st0_meal-53{fill:#FFFFFF;}
	.st1_meal-53{fill:#231F20;}
	.st2_meal-53{fill:#D1D3D4;}
	.st3_meal-53{fill:#68E1FD;}
</style>
<g id="Plate_meal-53">
	<circle class="st0_meal-53" cx="251.3" cy="250" r="162.9"/>
	<path class="st1_meal-53" d="M251.3,413.5c-90.2,0-163.5-73.4-163.5-163.5S161.2,86.4,251.3,86.4S414.9,159.8,414.9,250&#10;&#9;&#9;S341.5,413.5,251.3,413.5z M251.3,87.8c-89.4,0-162.1,72.7-162.1,162.2s72.7,162.1,162.1,162.1S413.5,339.4,413.5,250&#10;&#9;&#9;S340.8,87.8,251.3,87.8L251.3,87.8z"/>
	<path class="st2_meal-53" d="M251.3,396.2c-80.6,0-146.2-65.6-146.2-146.2s65.6-146.2,146.2-146.2S397.6,169.4,397.6,250&#10;&#9;&#9;S332,396.2,251.3,396.2z M251.3,105.1c-79.9,0-144.8,65-144.8,144.9s65,144.9,144.8,144.9s144.9-65,144.9-144.9&#10;&#9;&#9;S331.2,105.2,251.3,105.1z"/>
</g>
<g id="Steak_meal-53">
	<path class="st0_meal-53" d="M359.9,332.1c-6.5,10-12.2,19.5-22.2,26.3c-10.9,7.5-25,10.6-37.3,6.4c-12.7-4.4-22-15.5-30.6-26.1&#10;&#9;&#9;c-5.3-6.6-10.7-13.3-13.8-21.3c-3.8-10-3.7-21.2-3.4-32c0-0.3,0-0.6,0-0.9c0.6-23.6,1.4-47.5,8.2-70c2.2-7.7,5.5-15.1,9.8-21.8&#10;&#9;&#9;c6.9-10.4,17-18.3,23.2-29.2c2-3.6,3.6-7.4,6-10.6c5.5-7.5,14.9-11.3,23.9-11.1s17.7,3.8,25.3,8.9c3.2,2,6,4.5,8.2,7.6&#10;&#9;&#9;c4.7,7.2,3.6,16.9,4.4,25.6c0.9,9.6,4.2,18.7,5.4,28.2c1,7.6,0.6,15.4,0.2,23.1c-0.8,15.7-1.7,31.3-2.5,47&#10;&#9;&#9;c-0.3,5.4-0.6,10.8,0.5,16.1c0,0.2,0.1,0.4,0.1,0.5c0.7,3.3,2,6.5,2.5,9.9C369.5,318.7,364.8,324.5,359.9,332.1z"/>
	<path class="st1_meal-53" d="M312.1,367.4c-4.1,0-8.1-0.6-12-2c-13.3-4.5-23-16.6-30.9-26.4c-5.3-6.5-10.8-13.3-13.9-21.5&#10;&#9;&#9;c-4-10.4-3.7-22-3.5-32.3v-0.9c0.6-25.4,1.6-48.3,8.3-70.2c2.2-7.8,5.5-15.2,9.9-22c3.3-4.7,6.9-9.1,10.8-13.2&#10;&#9;&#9;c4.5-5,9.1-10.1,12.4-16c0.7-1.2,1.3-2.4,2-3.7c1.2-2.4,2.6-4.8,4.1-7c5.3-7.2,14.7-11.5,24.5-11.4c8.3,0.1,16.9,3.2,25.7,9&#10;&#9;&#9;c3.3,2,6.1,4.6,8.4,7.8c3.7,5.6,3.9,12.6,4.1,19.4c0.1,2.2,0.1,4.4,0.3,6.6c0.6,5.1,1.5,10.1,2.7,15.1c1.1,4.3,2,8.7,2.6,13.1&#10;&#9;&#9;c1,7.7,0.6,15.6,0.2,23.2l-2.5,47c-0.3,5-0.6,10.6,0.5,15.9c0,0.2,0.1,0.3,0.1,0.5c0.3,1.5,0.7,2.9,1.1,4.3c0.6,1.8,1,3.7,1.4,5.6&#10;&#9;&#9;c1.7,9.6-2.2,15.5-6.7,22.2c-0.4,0.6-0.8,1.2-1.2,1.9l-1.5,2.4c-5.9,9.2-11.5,17.8-20.8,24.2C330.5,364.4,321.4,367.3,312.1,367.4z&#10;&#9;&#9; M323.1,142.4c-9.2,0-17.9,4.1-22.8,10.8c-1.5,2.2-2.9,4.5-4,6.9c-0.6,1.2-1.3,2.5-2,3.7c-3.4,6-8.1,11.2-12.6,16.2&#10;&#9;&#9;c-3.8,4.1-7.4,8.4-10.6,13c-4.3,6.7-7.5,14-9.7,21.6c-6.6,21.8-7.6,44.5-8.2,69.8v0.9c-0.2,10.1-0.5,21.6,3.4,31.7&#10;&#9;&#9;c3,8,8.5,14.6,13.7,21.1c7.8,9.6,17.4,21.5,30.3,25.9c11.5,4,25.2,1.6,36.7-6.3c9.1-6.2,14.6-14.8,20.5-23.8l1.5-2.4l0,0&#10;&#9;&#9;c0.4-0.6,0.8-1.3,1.2-1.9c4.5-6.8,8.1-12.2,6.5-21.2c-0.3-1.8-0.8-3.6-1.4-5.4c-0.4-1.4-0.9-2.9-1.2-4.4c0-0.2-0.1-0.4-0.1-0.5&#10;&#9;&#9;c-1.1-5.4-0.8-11.2-0.5-16.2l2.5-47c0.4-7.6,0.8-15.4-0.2-23c-0.6-4.3-1.5-8.7-2.6-12.9c-1.3-5-2.2-10.1-2.8-15.3&#10;&#9;&#9;c-0.2-2.2-0.3-4.4-0.3-6.6c-0.2-6.6-0.5-13.4-3.9-18.7c-2.1-3-4.9-5.5-8-7.4c-8.5-5.7-16.9-8.6-25-8.8L323.1,142.4z"/>
	<path class="st1_meal-53" d="M359.9,332.1c-6.5,10-12.2,19.5-22.2,26.3c-10.9,7.5-25,10.6-37.3,6.4c-12.7-4.4-22-15.5-30.6-26.1&#10;&#9;&#9;c-5.3-6.6-10.7-13.3-13.8-21.3c-3.8-10-3.7-21.2-3.4-32c0-0.3,0-0.6,0-0.9c4.4,8.7,7.5,18.2,13.6,25.9s14.6,13.1,22.9,18.3&#10;&#9;&#9;c8.5,5.4,17.6,10.9,27.5,11.1c15.9,0.4,29.3-12.6,38.3-26.5c3.2-5,6.5-10.5,10.2-15.3c0,0.2,0.1,0.4,0.1,0.5c0.7,3.3,2,6.5,2.5,9.9&#10;&#9;&#9;C369.5,318.7,364.8,324.5,359.9,332.1z"/>
	<path class="st1_meal-53" d="M312.1,367.5c-4.1,0-8.1-0.6-12-2c-13.3-4.5-23.1-16.7-30.9-26.4c-5.3-6.5-10.8-13.3-13.9-21.5&#10;&#9;&#9;c-4-10.4-3.7-22-3.5-32.3v-0.9c0-0.4,0.4-0.7,0.8-0.7c0.3,0,0.5,0.2,0.7,0.4c1.4,2.7,2.6,5.5,3.9,8.3c2.7,6,5.5,12.3,9.6,17.5&#10;&#9;&#9;c6.1,7.8,14.5,13.1,22.7,18.2s17.1,10.7,27.2,11c17.6,0.5,31.2-16.2,37.6-26.1l2.3-3.6c2.5-4,5.1-8,8-11.8c0.2-0.3,0.7-0.4,1.1-0.1&#10;&#9;&#9;c0.2,0.1,0.3,0.3,0.3,0.5c0,0.2,0.1,0.3,0.1,0.5c0.3,1.5,0.7,2.9,1.1,4.3c0.6,1.8,1,3.7,1.4,5.6c1.7,9.6-2.2,15.5-6.7,22.3&#10;&#9;&#9;l-1.2,1.9l-1.5,2.4c-6,9.1-11.6,17.8-20.9,24.2C330.5,364.4,321.4,367.4,312.1,367.5z M253.2,287.6c-0.2,9.5-0.2,20.1,3.4,29.5&#10;&#9;&#9;c3,8,8.5,14.6,13.7,21.1c7.8,9.6,17.4,21.5,30.2,25.9c11.5,3.9,25.2,1.6,36.7-6.3c9.1-6.2,14.6-14.7,20.4-23.8l1.5-2.4l0,0l1.2-1.9&#10;&#9;&#9;c4.5-6.8,8-12.2,6.5-21.2c-0.3-1.8-0.8-3.6-1.4-5.4c-0.3-1.1-0.6-2.2-0.9-3.3c-2.4,3.3-4.7,6.9-6.9,10.4c-0.8,1.2-1.5,2.4-2.3,3.6&#10;&#9;&#9;c-6.6,10.2-20.5,27.3-38.9,26.8c-10.4-0.3-20.1-6.3-27.9-11.2c-8.3-5.2-16.8-10.5-23.1-18.5c-4.2-5.4-7.1-11.7-9.8-17.9&#10;&#9;&#9;C254.9,291.3,254.1,289.4,253.2,287.6L253.2,287.6z"/>
	<path class="st2_meal-53" d="M270.2,221.6c-0.2,0-0.4-0.1-0.5-0.2c-0.3-0.3-0.2-0.7,0.1-1c0.1-0.1,6-5,13.4-10.8c3-2.3,5.8-5,8.2-7.8&#10;&#9;&#9;c1.8-2.1,3.8-4.1,6-5.8c3.3-2.6,6.6-4.9,9.9-7c2.3-1.5,4.7-3.1,6.9-4.8c1.4-1,2.7-2,4.1-3c3.8-2.6,7.4-5.4,10.8-8.6&#10;&#9;&#9;c3.2-2.9,6.7-5.4,10.4-7.5c2-1.2,3.9-2.4,5.5-3.6c0.3-0.2,0.8-0.2,1,0.1c0.2,0.3,0.2,0.8-0.1,1c-1.6,1.2-3.5,2.4-5.6,3.7&#10;&#9;&#9;c-3.7,2.1-7.1,4.5-10.2,7.3c-3.4,3.2-7.1,6.1-11,8.8c-1.3,0.9-2.7,1.9-4.1,2.9c-2.3,1.7-4.7,3.3-7,4.8c-3.2,2.1-6.5,4.3-9.8,6.9&#10;&#9;&#9;c-2.1,1.7-4,3.6-5.8,5.7c-2.5,2.9-5.4,5.6-8.4,8c-7.4,5.8-13.3,10.8-13.4,10.8C270.5,221.5,270.3,221.6,270.2,221.6z"/>
	<path class="st2_meal-53" d="M270.1,261c-0.2,0-0.4-0.1-0.5-0.3c-0.2-0.3-0.2-0.7,0.1-1c0,0,0,0,0,0l0.6-0.5c8.3-6.7,13.8-11.1,22.5-21.7&#10;&#9;&#9;c5-6.1,8.4-8.4,13.1-11.4c5.2-3.4,10.2-7.1,14.9-11.2c15-13.1,32.4-27.4,32.6-27.6c0.3-0.3,0.7-0.2,1,0.1c0,0,0,0,0,0&#10;&#9;&#9;c0.3,0.3,0.2,0.7-0.1,1c0,0,0,0,0,0c-0.2,0.1-17.5,14.5-32.6,27.6c-4.7,4.1-9.7,7.9-15,11.4c-4.6,3-7.9,5.2-12.8,11.2&#10;&#9;&#9;c-8.8,10.7-14.3,15.1-22.7,21.9l-0.6,0.5C270.5,260.9,270.3,261,270.1,261z"/>
	<path class="st2_meal-53" d="M273.6,299.4c-0.1,0-0.3,0-0.4-0.1c-0.3-0.2-0.4-0.7-0.2-1c0,0,0,0,0,0c0.1-0.2,13.6-19.2,26.5-30.1&#10;&#9;&#9;c4.5-3.8,8-6.6,11.1-9c5.9-4.6,10.1-8,16.1-14.5c4.9-5.4,10.5-9.6,15.5-13.3c4.3-3.2,8.4-6.3,11.5-9.7c0.3-0.3,0.7-0.3,1-0.1&#10;&#9;&#9;c0,0,0,0,0,0c0.3,0.3,0.3,0.7,0,1c-3.1,3.5-7.3,6.6-11.7,9.9c-5.1,3.8-10.4,7.8-15.2,13.1c-6,6.6-10.3,10-16.2,14.7&#10;&#9;&#9;c-3.1,2.5-6.6,5.2-11.1,9c-12.7,10.8-26.1,29.6-26.2,29.8C274,299.3,273.8,299.4,273.6,299.4z"/>
	<path class="st2_meal-53" d="M290.1,318c-0.1,0-0.3,0-0.4-0.1c-0.3-0.2-0.4-0.7-0.2-1c0,0,0,0,0,0c1.8-2.2,3.8-4.3,6-6.1&#10;&#9;&#9;c3.8-3.3,10.9-9.5,21.6-18c10.3-8.1,35-33.5,35.2-33.8c0.3-0.3,0.7-0.3,1,0c0,0,0,0,0,0c0.3,0.3,0.3,0.7,0,1&#10;&#9;&#9;c-0.2,0.2-25,25.7-35.4,33.9c-10.6,8.4-17.7,14.6-21.5,17.9c-2.1,1.8-4.1,3.8-5.8,5.9C290.5,317.9,290.3,318,290.1,318z"/>
	<path class="st2_meal-53" d="M312.3,330.4c-0.2,0-0.4-0.1-0.5-0.2c-0.3-0.3-0.3-0.7,0-1c0.1-0.1,8.7-8.2,17.7-17.1&#10;&#9;&#9;c9.9-9.8,22.3-23,22.9-24.4c0.2-0.4,0.5-0.5,0.9-0.4c0.4,0.1,0.5,0.5,0.4,0.9c0,0,0,0,0,0c-0.6,1.8-15.6,17.4-23.2,25&#10;&#9;&#9;c-9,8.9-17.7,17-17.8,17.1C312.6,330.3,312.5,330.4,312.3,330.4z"/>
	<path class="st2_meal-53" d="M350.5,240.8c-0.3,0-0.6-0.2-0.7-0.5c-0.6-1.9-1.2-3.9-1.8-5.8c-2.4-8.3-5-16.9-11.8-26.3&#10;&#9;&#9;c-8.4-11.7-25.3-46.3-25.4-46.7c-0.2-0.3,0-0.8,0.3-0.9c0.3-0.2,0.8,0,0.9,0.3c0.2,0.4,16.9,34.8,25.3,46.4&#10;&#9;&#9;c6.9,9.6,9.5,18.3,12,26.7c0.6,2,1.1,3.9,1.8,5.8c0.1,0.4-0.1,0.8-0.5,0.9C350.7,240.7,350.6,240.8,350.5,240.8z"/>
	<path class="st2_meal-53" d="M350.9,283.9c-0.3,0-0.5-0.1-0.6-0.4c-0.1-0.2-12-22.6-20.7-31.3c-4.8-4.9-7.3-10.6-9.6-16.1&#10;&#9;&#9;c-2.1-4.9-4.1-9.5-7.5-13.6c-7.6-8.9-25.5-34.2-25.7-34.5c-0.2-0.3-0.2-0.7,0.1-1c0,0,0,0,0,0c0.3-0.2,0.7-0.2,1,0.1c0,0,0,0,0,0&#10;&#9;&#9;c0.2,0.3,18.1,25.6,25.6,34.4c3.6,4.2,5.7,9.2,7.8,13.9c2.3,5.4,4.7,11,9.3,15.7c8.8,8.9,20.4,30.7,20.9,31.7&#10;&#9;&#9;c0.2,0.3,0.1,0.8-0.3,0.9c0,0,0,0,0,0C351.2,283.8,351,283.9,350.9,283.9z"/>
	<path class="st2_meal-53" d="M347,317.6c-0.3,0-0.6-0.2-0.7-0.5c0,0-1.5-4-10.8-14.4c-9.2-10.2-25.3-29.1-30.5-41&#10;&#9;&#9;c-4.9-11.5-28.7-52.8-28.9-53.2c-0.2-0.3-0.1-0.8,0.3-1c0.3-0.2,0.8-0.1,1,0.3c0.2,0.4,24,41.8,29,53.3&#10;&#9;&#9;c5.1,11.8,21.1,30.5,30.2,40.6c9.6,10.7,11,14.7,11.1,14.9c0.1,0.4-0.1,0.8-0.5,0.9C347.1,317.6,347.1,317.6,347,317.6z"/>
	<path class="st2_meal-53" d="M327.4,329.6c-0.2,0-0.3-0.1-0.5-0.2c-0.2-0.1-16.8-14.6-28.5-29s-31.2-61.9-32-63.9c-0.1-0.4,0.1-0.8,0.5-0.9&#10;&#9;&#9;c0.3-0.1,0.7,0,0.8,0.3c0.2,0.5,20.2,49.2,31.8,63.6s28.1,28.7,28.3,28.8c0.3,0.3,0.3,0.7,0.1,1&#10;&#9;&#9;C327.8,329.5,327.6,329.6,327.4,329.6z"/>
	<path class="st3_meal-53 targetColor" d="M302.1,255.9c0-0.4,0.1-0.8,0.3-1.1c0.5-0.6,1.5-0.4,2.1,0.2s1.1,1.3,1.9,1.5c0-1.9,0.2-3.8,0.5-5.7&#10;&#9;&#9;c0-0.8,0.3-1.5,0.9-2c1-0.7,2.3,0.2,3.2,1.1c0-1.8,0.1-3.6,1.1-5.1s3.3-2,4.3-0.6c1.8-3.1,5.4-4.6,8.9-3.7&#10;&#9;&#9;c-0.6,1.9-1.2,3.9-1.9,5.8c1.1,0.7,2.5-0.6,3.6-0.1c1,0.4,1.3,1.8,0.9,2.8c-0.5,1-1.4,1.7-2.3,2.3l-4.1,2.7c0.7,0.1,1.4,0.3,2,0.7&#10;&#9;&#9;c0.6,0.4,0.8,1.2,0.5,1.9c-0.2,0.3-0.5,0.6-0.9,0.7c-1.6,0.9-3.2,1.6-4.9,2.2c1.1-0.2,2,1.2,1.8,2.4c-0.3,1.1-0.9,2.2-1.8,2.9&#10;&#9;&#9;c-1.6,1.7-3.3,3.5-5.5,4.4C306,271.9,301.9,261.4,302.1,255.9z" style="fill: rgb(104, 225, 253);"/>
	<path class="st1_meal-53" d="M310.5,270.4c-1.2,0-2.5-0.4-3.5-1.1c-3.9-2.8-5.8-9.5-5.7-13.3l0,0c0-0.6,0.1-1.1,0.5-1.6&#10;&#9;&#9;c0.3-0.4,0.7-0.6,1.2-0.6c0.7,0,1.5,0.2,2,0.7c0.2,0.2,0.4,0.4,0.6,0.6l0.2,0.2c0.1-1.5,0.2-3,0.4-4.5c0-0.9,0.5-1.8,1.1-2.4&#10;&#9;&#9;c0.9-0.6,2.1-0.5,2.9,0.2c0-1.4,0.4-2.8,1.2-4c0.7-1,1.9-1.6,3.1-1.7c0.6,0,1.1,0.1,1.6,0.4c2.1-2.9,5.7-4.2,9.2-3.3&#10;&#9;&#9;c0.2,0.1,0.3,0.2,0.4,0.3c0.1,0.2,0.1,0.4,0.1,0.5c-0.5,1.7-1.1,3.4-1.6,5.1c0.2,0,0.5-0.1,0.8-0.2c0.7-0.3,1.4-0.3,2.1-0.1&#10;&#9;&#9;c0.6,0.2,1.1,0.7,1.3,1.2c0.3,0.8,0.3,1.7,0,2.5c-0.6,1.1-1.5,2-2.6,2.6l-2.9,1.8c0.2,0.1,0.5,0.2,0.7,0.4c0.9,0.7,1.2,1.8,0.7,2.8&#10;&#9;&#9;c-0.3,0.4-0.7,0.8-1.1,1c-1.1,0.6-2.3,1.2-3.4,1.7c0.6,0.7,0.8,1.6,0.7,2.4c-0.3,1.3-1,2.4-2,3.3c-1.6,1.7-3.4,3.6-5.8,4.6&#10;&#9;&#9;C312.1,270.2,311.3,270.4,310.5,270.4z M303.2,255.1L303.2,255.1c-0.1,0-0.2,0-0.3,0.1c-0.1,0.2-0.2,0.5-0.1,0.7l0,0&#10;&#9;&#9;c-0.1,3.9,1.9,9.9,5.1,12.1c1.3,1,3,1.2,4.5,0.5c2.1-0.8,3.8-2.6,5.2-4.2c0.8-0.7,1.3-1.6,1.6-2.6c0.1-0.5-0.1-1-0.4-1.4&#10;&#9;&#9;c-0.1-0.2-0.3-0.2-0.6-0.2c-0.4,0.1-0.7-0.2-0.8-0.6c-0.1-0.3,0.1-0.7,0.5-0.8c1.6-0.6,3.2-1.3,4.8-2.2c0.2-0.1,0.4-0.3,0.6-0.5&#10;&#9;&#9;c0.1-0.4,0-0.8-0.3-1c-0.5-0.3-1.1-0.5-1.6-0.5c-0.3,0-0.5-0.3-0.6-0.5c-0.1-0.3,0.1-0.6,0.3-0.7l4.1-2.7c0.9-0.5,1.6-1.2,2.1-2&#10;&#9;&#9;c0.2-0.5,0.2-1,0-1.4c-0.1-0.2-0.2-0.4-0.5-0.5c-0.4-0.1-0.9,0-1.3,0.1c-0.8,0.3-1.7,0.3-2.5-0.1c-0.3-0.2-0.4-0.5-0.3-0.8&#10;&#9;&#9;c0.6-1.6,1.1-3.3,1.7-5c-3-0.4-5.9,1-7.4,3.6c-0.1,0.2-0.3,0.3-0.6,0.4c-0.2,0-0.5-0.1-0.6-0.3c-0.3-0.4-0.7-0.6-1.2-0.5&#10;&#9;&#9;c-0.8,0.1-1.5,0.4-2,1.1c-0.9,1.2-1,2.8-1,4.7c0,0.3-0.2,0.5-0.5,0.6c-0.3,0.1-0.6,0-0.8-0.2c-0.4-0.4-1.6-1.5-2.3-1&#10;&#9;&#9;c-0.4,0.4-0.6,0.9-0.6,1.5c-0.3,1.9-0.4,3.7-0.4,5.6c0,0.2-0.1,0.4-0.3,0.6c-0.2,0.1-0.4,0.2-0.6,0.1c-0.7-0.2-1.2-0.7-1.7-1.2&#10;&#9;&#9;c-0.2-0.2-0.3-0.3-0.5-0.5C303.8,255.3,303.5,255.2,303.2,255.1L303.2,255.1z M302.1,255.9L302.1,255.9z"/>
	<path class="st1_meal-53" d="M309,268.4h-0.1c-0.4-0.1-0.6-0.5-0.5-0.8c0,0,0,0,0,0c0.1-0.5,2.6-11.4,9-17.9c0.3-0.3,0.7-0.3,1,0&#10;&#9;&#9;s0.3,0.7,0,1l0,0c-6.1,6.2-8.6,17.1-8.6,17.2C309.6,268.2,309.3,268.4,309,268.4z"/>
	<path class="st3_meal-53 targetColor" d="M314.2,263.8l0.7,3.2c2.4-2.4,5.4-4.2,8.6-5.3c0.3-0.1,0.6-0.2,0.9-0.1c1,0.4,0.2,2.2,0.9,3.1l3.4-0.8&#10;&#9;&#9;c0.8-0.3,1.7-0.3,2.5,0c0.7,0.4,1,1.8,0.2,2.1c2.1,0.4,4.1,1,6,2c1.1,0.6,2.3,1.6,1.9,2.8c-0.4,0.8-1.2,1.3-2.1,1.3&#10;&#9;&#9;c-0.9,0-1.7,0.1-2.6,0.3c-0.8,0.3-1.5,1.4-1,2.2c0.2,0.4,0.6,0.5,0.9,0.9c0.4,0.8,0.1,1.9-0.7,2.3c0,0-0.1,0-0.1,0&#10;&#9;&#9;c-0.9,0.3-1.8,0.3-2.7,0c-2.4-0.7-5-1.8-7.2-0.5c0.5,0.4,0.9,1,1.1,1.6c0.2,0.6,0,1.4-0.6,1.7c-0.5,0.1-1,0-1.4-0.3&#10;&#9;&#9;c-1.7-0.9-3.4-1.9-5-2.8c-0.2-0.2-0.5-0.2-0.8-0.2c-0.4,0.1-0.5,0.6-0.7,1c-2.3,4.2-13.7-4.5-7.4-10.7&#10;&#9;&#9;C309.5,267.2,314.3,264.1,314.2,263.8z" style="fill: rgb(104, 225, 253);"/>
	<path class="st1_meal-53" d="M324.1,281.5c-0.5,0-1-0.2-1.4-0.5c-1.7-0.9-3.4-1.9-5-2.8c-0.1-0.1-0.2-0.1-0.3-0.1c0,0-0.1,0.2-0.1,0.3&#10;&#9;&#9;l-0.1,0.3c-0.6,1.1-1.8,1.6-3,1.5c-2.8-0.2-6.1-3-7.2-6c-1-2.4-0.3-5.2,1.6-7c0.7-0.5,1.4-1.1,2.1-1.5c1-0.7,2.6-1.8,3-2.2&#10;&#9;&#9;c0.1-0.2,0.3-0.3,0.5-0.4c0.4-0.1,0.7,0.2,0.8,0.5l0.4,2c2.3-2.1,5-3.6,8-4.6c0.5-0.2,0.9-0.2,1.4-0.1c1,0.4,1,1.5,1,2.2&#10;&#9;&#9;c0,0.2,0,0.5,0,0.8l2.8-0.7c1-0.4,2.1-0.3,3,0.1c0.7,0.4,1.1,1.2,1,2c0,0.1,0,0.2,0,0.3c1.8,0.4,3.5,1,5.2,1.9&#10;&#9;&#9;c1.4,0.7,2.7,2.1,2.3,3.6c-0.5,1.1-1.5,1.8-2.7,1.8c-0.3,0-0.6,0-0.8,0c-0.5,0-1,0-1.5,0.2c-0.3,0.1-0.6,0.4-0.7,0.7&#10;&#9;&#9;c-0.1,0.1-0.1,0.3,0,0.4c0.1,0.1,0.2,0.2,0.3,0.3c0.2,0.2,0.4,0.3,0.5,0.5c0.3,0.5,0.5,1.1,0.3,1.7c-0.2,0.7-0.7,1.3-1.4,1.7&#10;&#9;&#9;c-1,0.4-2.1,0.4-3.2,0l-1.1-0.3c-1.6-0.5-3.3-1-4.7-0.6c0.3,0.3,0.5,0.7,0.6,1.1c0.3,1-0.1,2.1-1.1,2.5&#10;&#9;&#9;C324.5,281.5,324.3,281.5,324.1,281.5z M317.4,276.7c0.4,0,0.7,0.1,1,0.3c1.7,0.9,3.3,1.9,5,2.8c0.2,0.1,0.6,0.3,0.8,0.3&#10;&#9;&#9;s0.3-0.5,0.2-0.8c-0.2-0.5-0.5-0.9-1-1.3c-0.2-0.2-0.2-0.4-0.2-0.6c0-0.2,0.2-0.4,0.3-0.5c2.1-1.2,4.5-0.5,6.7,0.2l1,0.3&#10;&#9;&#9;c0.7,0.3,1.5,0.3,2.2,0.1c0.3-0.2,0.5-0.4,0.6-0.8c0.1-0.2,0-0.4-0.1-0.5c-0.1-0.1-0.2-0.2-0.3-0.3c-0.2-0.2-0.4-0.4-0.6-0.6&#10;&#9;&#9;c-0.3-0.5-0.3-1.1-0.2-1.6c0.2-0.7,0.8-1.3,1.5-1.6c0.7-0.2,1.4-0.3,2-0.3h0.7c0.6,0,1.3-0.3,1.5-0.9c0.2-0.8-0.9-1.6-1.6-2&#10;&#9;&#9;c-1.8-0.9-3.8-1.6-5.8-2c-0.4-0.1-0.6-0.4-0.6-0.8c0-0.2,0.2-0.4,0.4-0.5c0.1,0,0.1-0.2,0.1-0.2c0-0.3-0.1-0.5-0.3-0.7&#10;&#9;&#9;c-0.6-0.2-1.4-0.2-2,0l-3.4,0.8c-0.3,0.1-0.6,0-0.7-0.2c-0.4-0.6-0.5-1.3-0.5-2c0-0.4,0-0.9-0.1-1c-0.2,0-0.3,0-0.5,0.1&#10;&#9;&#9;c-3.1,1-6,2.8-8.4,5.1c-0.2,0.2-0.4,0.2-0.7,0.2c-0.2-0.1-0.4-0.3-0.5-0.5l-0.4-2c-0.5,0.4-1.3,0.9-2.3,1.7&#10;&#9;&#9;c-0.8,0.5-1.8,1.2-1.9,1.4c-1.5,1.4-2.1,3.6-1.3,5.5c1,2.8,4,5,6,5.1c0.6,0.1,1.3-0.2,1.6-0.7c0-0.1,0.1-0.2,0.1-0.2&#10;&#9;&#9;c0.2-0.5,0.5-0.9,1-1.1C317.1,276.7,317.2,276.7,317.4,276.7L317.4,276.7z"/>
	<path class="st1_meal-53" d="M310.5,274.6c-0.3,0-0.5-0.1-0.6-0.4c-0.2-0.3,0-0.8,0.3-1c0.5-0.2,12-6.2,20.5-2.4c0.4,0.2,0.5,0.6,0.3,0.9&#10;&#9;&#9;c0,0,0,0,0,0c-0.2,0.3-0.6,0.5-0.9,0.4c-7.9-3.6-19.1,2.3-19.3,2.3C310.7,274.6,310.6,274.6,310.5,274.6z"/>
	<path class="st3_meal-53 targetColor" d="M307.5,261.5c-0.3-0.6-0.8-1.2-1.4-1.5c-0.6-0.3-1.4-0.1-1.8,0.5c-0.3,0.6-0.1,1.6-0.8,1.8&#10;&#9;&#9;c-0.3,0-0.6-0.1-0.8-0.3c-1.5-1.1-3.3-1.9-5.1-2.2c-0.3-0.1-0.6-0.1-0.9,0.1c-0.9,0.6,0,2.7-1,2.9c-2-1-4.2-1.4-6.4-1.1&#10;&#9;&#9;c-0.5,0-1.1,0.3-1.4,0.7c-0.2,0.5-0.1,1-0.3,1.4s-0.9,0.5-1.5,0.5c-3.2,0-6.3,1.2-8.6,3.4c-0.2,0.2-0.4,0.4-0.5,0.6&#10;&#9;&#9;c-0.2,0.6,0.4,1.3,1,1.5c1.5,0.6,3.5-0.2,4.5,1.1s-0.2,3.3,0.6,4.6c0.6,1,2.1,1.1,3.2,0.8s2.4-0.7,3.5-0.1c0,1.4,0.2,3,1.4,3.6&#10;&#9;&#9;s2.5-0.3,3.6-1s2.7-1.2,3.5-0.1c0.3,0.3,0.4,0.8,0.6,1.1c0.7,1,2,0.9,3.1,0.8c2.5-0.1,5-0.7,7.4-1.7c3.2-1.5,4.9-3.6,3.6-6.9&#10;&#9;&#9;C311.7,268.4,309.8,264.8,307.5,261.5z" style="fill: rgb(104, 225, 253);"/>
	<path class="st1_meal-53" d="M301.1,281.4c-1,0.1-2.1-0.3-2.7-1.2c-0.1-0.2-0.3-0.4-0.4-0.6c-0.1-0.2-0.2-0.3-0.2-0.5&#10;&#9;&#9;c-0.5-0.7-1.9-0.1-2.6,0.3c-1.2,0.8-2.8,1.7-4.3,1s-1.7-2.6-1.7-3.8c-0.7-0.1-1.5,0-2.2,0.2l-0.5,0.1c-1.8,0.4-3.3,0-4-1.1&#10;&#9;&#9;c-0.4-0.8-0.5-1.8-0.4-2.7c0.1-0.6,0.1-1.3-0.2-1.9c-0.4-0.5-1-0.5-2-0.6c-0.7,0-1.4-0.1-2.1-0.3c-1-0.3-1.7-1.4-1.4-2.4&#10;&#9;&#9;c0.1-0.3,0.4-0.7,0.7-0.9c2.5-2.3,5.7-3.6,9.1-3.6c0.3,0,0.8,0,0.9-0.2c0.1-0.1,0.1-0.3,0.1-0.4c0-0.3,0.1-0.6,0.2-0.9&#10;&#9;&#9;c0.4-0.7,1.1-1.1,1.9-1.1c2.2-0.3,4.4,0,6.4,0.9c0-0.1,0-0.4,0-0.5c-0.1-0.8,0.2-1.6,0.8-2.1c0.4-0.2,0.9-0.3,1.4-0.2&#10;&#9;&#9;c2,0.3,3.8,1.1,5.4,2.4l0.2,0.1c0-0.1,0-0.3,0.1-0.4c0-0.3,0.1-0.6,0.2-0.9c0.2-0.4,0.6-0.8,1-0.9c0.6-0.2,1.2-0.2,1.7,0.1&#10;&#9;&#9;c0.7,0.4,1.3,1,1.7,1.8l0,0c2.3,3.4,4.1,6.9,5.6,10.7c1.3,3.4,0,5.9-4,7.8c-2.4,1-5,1.6-7.6,1.7&#10;&#9;&#9;C301.8,281.4,301.5,281.4,301.1,281.4z M297,277.4c0.7,0,1.4,0.3,1.9,0.9c0.2,0.2,0.3,0.5,0.4,0.7c0.1,0.1,0.1,0.3,0.2,0.4&#10;&#9;&#9;c0.5,0.6,1.5,0.6,2.5,0.5c2.5-0.1,4.9-0.7,7.2-1.6c3.2-1.5,4.2-3.4,3.3-6c-1.5-3.7-3.3-7.2-5.5-10.4l0,0c-0.3-0.5-0.7-1-1.2-1.3&#10;&#9;&#9;c-0.2-0.1-0.4-0.1-0.6,0c-0.1,0-0.2,0.1-0.2,0.2c-0.1,0.2-0.1,0.4-0.1,0.6c-0.1,0.5-0.2,1.4-1.1,1.6c-0.5,0.1-1-0.1-1.3-0.5&#10;&#9;&#9;c-1.4-1.1-3.1-1.8-4.8-2.1c-0.1,0-0.2,0-0.4,0c-0.1,0.1-0.1,0.7-0.1,0.9c0,0.7-0.1,1.8-1.2,2c-0.1,0-0.3,0-0.4-0.1&#10;&#9;&#9;c-1.9-0.9-3.9-1.3-6-1c-0.5,0.1-0.8,0.2-0.8,0.4c0,0.1-0.1,0.3-0.1,0.4c0,0.4-0.1,0.7-0.3,1.1c-0.5,0.6-1.3,0.9-2.1,0.8l0,0&#10;&#9;&#9;c-3,0-5.9,1.2-8.1,3.2c-0.1,0.1-0.2,0.2-0.3,0.3c-0.1,0.2,0.2,0.5,0.5,0.7c0.5,0.2,1.1,0.2,1.7,0.2c1.1,0,2.4,0,3.1,1.1&#10;&#9;&#9;c0.5,0.8,0.7,1.8,0.5,2.8c-0.1,0.6-0.1,1.3,0.2,1.9c0.5,0.9,2,0.6,2.5,0.5l0.4-0.1c1.1-0.4,2.4-0.4,3.5,0c0.2,0.1,0.4,0.4,0.4,0.6&#10;&#9;&#9;c0,1.1,0.1,2.6,1,3s1.9-0.3,2.8-0.9C295.2,277.8,296.1,277.5,297,277.4L297,277.4z"/>
	<path class="st1_meal-53" d="M313.2,276.4c-0.1,0-0.1,0-0.2,0c-0.2-0.1-0.4-0.2-0.5-0.4c-1.2-1.2-12.8-8-24.7-6.5c-0.4,0.1-0.7-0.2-0.8-0.6&#10;&#9;&#9;c0,0,0,0,0,0c0-0.4,0.2-0.7,0.6-0.8c0,0,0,0,0,0c12.6-1.6,24.9,5.8,26,7c0.2,0.2,0.3,0.5,0.2,0.8&#10;&#9;&#9;C313.8,276.2,313.6,276.4,313.2,276.4z"/>
</g>
<g id="chicken_meal-53">
	<path class="st3_meal-53 targetColor" d="M158.9,257.7c5.7-0.7,11.5,0.7,17.3,0.5c8.7-0.4,16.7-4.4,25-6.9s18.2-3.1,24.9,2.4&#10;&#9;&#9;c13.2,10.9,3.4,34.5,13.6,48.3c1.8,2.5,4.3,4.6,4.9,7.6c0.5,2.6-0.6,5.2-1,7.8c-1.8,10.3,6,20.6,3.9,30.9&#10;&#9;&#9;c-2.3,11.1-14.6,16.7-25.7,19.2c-4.7,1.1-9.5,1.9-14.3,2.5c-2,0.4-4.1,0.3-6.1-0.2c-2.4-0.8-4.3-2.8-6.4-4.3&#10;&#9;&#9;c-11.3-8.2-30-2-38.9-12.8c-3.6-4.3-4.4-10.2-6.6-15.5c-4.2-10.2-13.5-17.5-18.1-27.5C122,289,135.2,260.7,158.9,257.7z" style="fill: rgb(104, 225, 253);"/>
	<path class="st1_meal-53" d="M204.3,371c-1.1,0-2.2-0.1-3.2-0.5c-1.8-0.7-3.4-1.7-4.8-3c-0.6-0.5-1.2-1-1.8-1.4c-5-3.6-11.7-4.4-18.1-5.1&#10;&#9;&#9;c-7.8-0.9-15.8-1.8-20.9-7.8c-2.5-3-3.7-6.8-4.9-10.5c-0.5-1.7-1.1-3.5-1.8-5.1c-2.1-5.2-5.7-9.7-9.1-14.1&#10;&#9;&#9;c-3.3-4.2-6.7-8.5-8.9-13.4c-4.8-10.5-4-23.9,2.1-34.8c5.8-10.2,15.2-16.9,25.9-18.2c3.3-0.3,6.6-0.2,9.8,0.1&#10;&#9;&#9;c2.5,0.3,5,0.4,7.5,0.3c6-0.2,11.8-2.3,17.4-4.3c2.4-0.9,4.9-1.8,7.5-2.5c6.2-1.8,17.7-3.9,25.5,2.6c7.3,6.1,7.8,16,8.3,25.5&#10;&#9;&#9;c0.4,8.2,0.8,16.7,5.4,22.9c0.4,0.6,1,1.2,1.4,1.8c1.5,1.8,3.1,3.7,3.5,6.1c0.2,2,0.1,4-0.5,5.9c-0.2,0.7-0.3,1.4-0.5,2.1&#10;&#9;&#9;c-0.9,4.9,0.6,10,2,14.9c1.5,5.2,3,10.6,1.9,16c-2.6,12.6-17.5,17.8-26.2,19.7c-4.8,1.1-9.6,1.9-14.4,2.5&#10;&#9;&#9;C206.4,370.9,205.3,371,204.3,371z M159,258.4c-10.3,1.3-19.3,7.6-24.8,17.5c-5.9,10.5-6.7,23.4-2.1,33.6c2.2,4.8,5.5,9,8.7,13.1&#10;&#9;&#9;c3.5,4.5,7.1,9.1,9.3,14.4c0.7,1.7,1.3,3.5,1.8,5.2c1.2,3.7,2.3,7.2,4.6,10c4.7,5.6,12.1,6.4,19.9,7.3c6.6,0.7,13.5,1.5,18.8,5.3&#10;&#9;&#9;c0.6,0.5,1.2,1,1.8,1.4c1.3,1.2,2.7,2.1,4.4,2.8c1.9,0.5,3.9,0.5,5.8,0.2c4.8-0.6,9.5-1.4,14.2-2.5c8.4-1.9,22.8-6.9,25.2-18.7&#10;&#9;&#9;c1-5-0.4-10-1.9-15.3c-1.4-5.1-2.9-10.3-2-15.5c0.1-0.7,0.3-1.5,0.5-2.2c0.5-1.7,0.7-3.5,0.5-5.3c-0.4-2.1-1.8-3.7-3.2-5.5&#10;&#9;&#9;c-0.5-0.6-1-1.2-1.5-1.9c-4.9-6.6-5.3-15.3-5.7-23.7c-0.5-9.7-0.9-18.9-7.8-24.5c-7.4-6.1-18.3-4.1-24.2-2.3&#10;&#9;&#9;c-2.5,0.7-5,1.6-7.4,2.5c-5.7,2-11.6,4.1-17.8,4.4c-2.6,0.1-5.1,0-7.7-0.3C165.4,258.2,162.2,258.1,159,258.4L159,258.4z&#10;&#9;&#9; M158.9,257.8L158.9,257.8z"/>
	<path class="st1_meal-53" d="M196.9,361.5c-3.9,0.1-7.6-1.1-10.7-3.4c-1.6-1.4-3-3-4.2-4.8c-0.3-0.4-0.6-0.9-0.9-1.3&#10;&#9;&#9;c-3.5-4.6-7.7-8.5-12.6-11.5c-0.3-0.2-0.4-0.6-0.2-1c0,0,0,0,0,0c0.2-0.3,0.7-0.4,1-0.2c0,0,0,0,0,0c5,3.1,9.4,7.1,12.9,11.8l1,1.3&#10;&#9;&#9;c1.1,1.7,2.4,3.2,3.9,4.5c3.1,2.3,6.8,3.4,10.6,3.1c3.9-0.3,7.7-1.1,11.4-2.3l6.4-1.8c0.4-0.1,0.8,0.1,0.9,0.5&#10;&#9;&#9;c0.1,0.4-0.1,0.8-0.5,0.9l-6.4,1.8c-3.8,1.3-7.7,2-11.7,2.4L196.9,361.5z"/>
	<path class="st1_meal-53" d="M167.8,263c-0.4,0-0.7-0.3-0.7-0.7c0.1-1.5,1.3-2.8,2.8-3c1.2-0.1,2.3,0,3.4,0.4l0.3,0.1&#10;&#9;&#9;c6.8,1.7,14,1.4,20.7-0.7c0.8-0.3,1.6-0.5,2.4-0.8c3.2-1.2,6.6-2.4,10.1-1.8c2.2,0.5,4.4,1.3,6.4,2.5l4.9,2.6&#10;&#9;&#9;c0.3,0.2,0.5,0.6,0.3,0.9c-0.2,0.3-0.6,0.5-0.9,0.3l0,0l-4.9-2.6c-1.8-1.1-3.8-1.9-5.9-2.4c-3.1-0.5-6.3,0.7-9.4,1.8&#10;&#9;&#9;c-0.8,0.3-1.6,0.6-2.4,0.9c-7,2.2-14.4,2.5-21.5,0.8L173,261c-0.9-0.3-1.9-0.4-2.9-0.3c-0.8,0.1-1.6,0.8-1.6,1.6&#10;&#9;&#9;C168.5,262.6,168.2,262.9,167.8,263L167.8,263z"/>
</g>
<g id="Plastic_Fork_meal-53">
	<path class="st0_meal-53" d="M119.9,139.9l-1.8,39.9c-0.1,1.2-1,2.1-2.2,2h-0.5c-1.2-0.1-2.1-1-2-2.2l1.8-39.9c0.1-1.2-0.9-2.3-2.1-2.4&#10;&#9;&#9;c0,0,0,0,0,0h-0.2c-1.3-0.1-2.3,0.9-2.4,2.2l-1.8,40.2c-0.1,1.2-1,2.1-2.2,2l0,0c-1.2-0.1-2.1-1-2-2.2l1.8-40.2&#10;&#9;&#9;c0.1-1.3-0.9-2.3-2.2-2.4c0,0,0,0,0,0l-1.7-0.1c-1.2,0-2.3,0.9-2.3,2.2c0,0,0,0,0,0l-1.8,40c-0.1,1.2-1,2-2.2,2l0,0&#10;&#9;&#9;c-1.2-0.1-2.1-1.1-2-2.2c0,0,0,0,0,0l2-40c0-1.2-0.9-2.3-2.2-2.3h-0.7c-1.2-0.1-2.2,0.8-2.3,1.9c-1.5,9.6-4.8,35.4-5,44.5&#10;&#9;&#9;c-0.2,11.9,11.4,18.5,11.4,18.5s-7.9,139.2-8.5,150c-0.8,13.3,4,14.4,9.8,14.7s8.9-3.6,9.5-9.4c0.9-8.5,4.7-153.3,4.7-153.3&#10;&#9;&#9;c8.4-5.1,12.9-12.5,13.1-20.3c0.1-6-0.8-33.1-1.3-43.2c-0.1-1.2-1-2.1-2.2-2.1l0,0C121,137.7,120,138.6,119.9,139.9z"/>
	<path class="st1_meal-53" d="M99,366.6h-0.6c-2.9-0.1-5.9-0.5-7.9-2.7s-2.9-6.4-2.5-12.7c0.6-10.4,8-141.1,8.5-149.5&#10;&#9;&#9;c-2.1-1.3-11.5-7.8-11.4-18.9c0.1-8.8,3.4-34.1,5-44.6c0.2-1.5,1.6-2.6,3.1-2.5h0.7c1.6,0.1,2.8,1.4,2.8,3l-2.1,40.1&#10;&#9;&#9;c0,0.8,0.6,1.5,1.4,1.5s1.5-0.6,1.5-1.4l1.8-40.1c0.1-1.6,1.5-2.9,3.1-2.8l1.7,0.1c0.8,0,1.5,0.4,2.1,1c0.5,0.6,0.8,1.4,0.8,2.1&#10;&#9;&#9;l-1.8,40.2c0,0.4,0.1,0.7,0.4,1c0.5,0.6,1.4,0.6,2,0.1c0.3-0.3,0.4-0.6,0.5-1l1.8-40.2c0.1-1.6,1.5-2.9,3.1-2.8h0.2&#10;&#9;&#9;c1.6,0.1,2.9,1.5,2.8,3.1l-1.8,39.9c0,0.4,0.1,0.7,0.4,1c0.3,0.3,0.6,0.4,1,0.5h0.5c0.8,0,1.4-0.6,1.5-1.4l1.8-39.9l0,0&#10;&#9;&#9;c0.2-1.6,1.8-2.8,3.4-2.5c1.3,0.2,2.4,1.2,2.5,2.5c0.5,9.7,1.5,37.2,1.3,43.3c-0.2,8.1-5,15.6-13.1,20.6&#10;&#9;&#9;c-0.3,9.9-3.8,144.6-4.7,152.9C108,363,104.5,366.6,99,366.6z M93,137.1c-0.8,0-1.4,0.6-1.6,1.3c-1.6,10.5-4.8,35.7-5,44.4&#10;&#9;&#9;c-0.2,11.3,10.9,17.8,11,17.8c0.2,0.1,0.4,0.4,0.3,0.6c-0.1,1.4-7.9,139.3-8.5,150c-0.4,5.8,0.4,9.6,2.2,11.7s4.4,2.2,7,2.3&#10;&#9;&#9;c6.8,0.3,8.4-5.3,8.8-8.7c0.9-8.4,4.7-151.8,4.7-153.2c0-0.2,0.1-0.5,0.3-0.6c7.9-4.8,12.6-12,12.8-19.7c0.1-6.1-0.8-33.5-1.3-43.2&#10;&#9;&#9;c0-0.9-0.7-1.6-1.6-1.6c-0.9,0-1.6,0.7-1.6,1.6l-1.8,39.9c-0.1,1.6-1.4,2.8-2.9,2.7h-0.5c-0.7,0-1.4-0.4-1.9-0.9&#10;&#9;&#9;c-0.5-0.5-0.8-1.3-0.7-2l1.8-39.9c0-0.4-0.1-0.8-0.4-1.1c-0.2-0.3-0.6-0.5-1-0.5h-0.2c-0.9,0-1.6,0.6-1.6,1.5c0,0,0,0,0,0&#10;&#9;&#9;l-1.8,40.2c-0.1,1.5-1.4,2.7-2.9,2.7c-1.6-0.1-2.8-1.4-2.7-2.9l1.8-40.2c0-0.4-0.1-0.8-0.4-1.1c-0.3-0.3-0.7-0.5-1.1-0.5l-1.7-0.1&#10;&#9;&#9;c-0.4,0-0.8,0.1-1.1,0.4c-0.3,0.3-0.5,0.7-0.5,1.1l-1.8,40.1c0,0.8-0.3,1.5-0.9,2c-0.5,0.5-1.3,0.8-2,0.7c-1.6-0.1-2.8-1.4-2.7-2.9&#10;&#9;&#9;c0,0,0,0,0,0l2.1-40.1c0-0.8-0.7-1.5-1.5-1.6h-0.7L93,137.1z"/>
</g>
<g id="Knife_meal-53">
	<path class="st0_meal-53" d="M376.5,174.5c-0.9,16.6-1.2,88.7-0.8,96.5s15.5,7,15.5,7l2.7,79.6c0.1,5.2,4.5,9.3,9.7,9.2c0.1,0,0.2,0,0.3,0&#10;&#9;&#9;l0,0c5.2-0.3,9.2-4.8,8.9-10l-12.6-216c-0.1-2.7-2.4-4.7-5.1-4.5c-0.9,0.1-1.8,0.4-2.6,0.9C386.2,141.8,377.8,152.2,376.5,174.5z"/>
	<path class="st1_meal-53" d="M403.4,367.5c-5.5,0-10-4.4-10.1-9.9l-2.6-78.9c-3.1,0.1-15.1-0.2-15.6-7.6s-0.1-80,0.8-96.6&#10;&#9;&#9;c1.2-22.3,9.6-32.9,16.3-37.9c2.5-1.8,5.9-1.3,7.7,1.2c0.6,0.9,1,1.9,1.1,2.9l12.6,216c0.4,5.6-3.9,10.4-9.5,10.8c0,0,0,0-0.1,0&#10;&#9;&#9;L403.4,367.5z M391.3,277.3c0.2,0,0.3,0.1,0.5,0.2c0.1,0.1,0.2,0.3,0.2,0.5l2.6,79.6c0.1,4.8,4.1,8.7,9,8.6c4.8-0.1,8.7-4.1,8.6-9&#10;&#9;&#9;c0-0.1,0-0.2,0-0.4l-12.6-216c-0.1-2.3-2.1-4-4.4-3.9c-0.8,0-1.5,0.3-2.2,0.8c-6.5,4.8-14.6,15.1-15.8,36.9h-0.7h0.7&#10;&#9;&#9;c-0.9,16.5-1.2,88.9-0.8,96.4C376.9,278,391.1,277.3,391.3,277.3L391.3,277.3z"/>
</g>
<g id="Sauce_meal-53">
	<path class="st0_meal-53" d="M212.9,128.4c0,0-7.6,27.1-15.4,36.5c-12.5,8.1-28.6,8.1-41.2,0.1c-7.8-9.6-15.5-36.6-15.5-36.6h8.6&#10;&#9;&#9;c15.5-14.4,39.4-14.4,54.9,0L212.9,128.4z"/>
	<path class="st1_meal-53" d="M176.9,171.7c-7.4-0.1-14.7-2.2-21-6.1c-0.1,0-0.1-0.1-0.1-0.1c-7.8-9.6-15.3-35.7-15.7-36.8&#10;&#9;&#9;c-0.1-0.2,0-0.4,0.1-0.6c0.1-0.2,0.3-0.3,0.6-0.3h8.3c15.7-14.4,39.7-14.4,55.4,0h8.3c0.2,0,0.4,0.1,0.6,0.3&#10;&#9;&#9;c0.1,0.2,0.2,0.4,0.1,0.6c-0.3,1.1-7.8,27.4-15.5,36.8c0,0.1-0.1,0.1-0.1,0.1C191.6,169.4,184.3,171.6,176.9,171.7z M156.8,164.4&#10;&#9;&#9;c12.3,7.8,28,7.8,40.3-0.1c6.8-8.3,13.5-30.6,14.9-35.3h-7.7c-0.2,0-0.4-0.1-0.5-0.2c-15.2-14.1-38.7-14.1-53.9,0&#10;&#9;&#9;c-0.1,0.1-0.3,0.2-0.5,0.2h-7.7C143.1,133.8,150,156,156.8,164.4L156.8,164.4z"/>
	<path class="st1_meal-53" d="M213.4,123.1c0,1.8-0.2,3.6-0.5,5.3c-2.9,15-17.9,26.5-36,26.5s-33.1-11.4-36.1-26.5c-0.3-1.8-0.5-3.5-0.5-5.3&#10;&#9;&#9;c0-17.6,16.4-31.8,36.6-31.8S213.4,105.5,213.4,123.1z"/>
	<path class="st1_meal-53" d="M176.8,155.6c-18.3,0-33.8-11.4-36.8-27.1c-0.4-1.8-0.5-3.6-0.5-5.5c0-18,16.7-32.5,37.3-32.5&#10;&#9;&#9;s37.3,14.6,37.3,32.6c0,1.8-0.2,3.7-0.5,5.5C210.6,144.2,195.1,155.6,176.8,155.6z M176.8,92c-19.8,0-35.8,14-35.8,31&#10;&#9;&#9;c0,1.7,0.2,3.5,0.5,5.2c2.9,15,17.8,25.9,35.3,25.9s32.4-10.9,35.3-25.9c0.3-1.7,0.5-3.4,0.5-5.2C212.6,106,196.6,92,176.8,92&#10;&#9;&#9;L176.8,92z"/>
	<path class="st3_meal-53 targetColor" d="M212.9,128.4c-2.9,15-17.9,26.5-36,26.5s-33.1-11.4-36.1-26.5c2.9-15.1,17.9-26.5,36.1-26.5&#10;&#9;&#9;S210,113.3,212.9,128.4z" style="fill: rgb(104, 225, 253);"/>
	<path class="st1_meal-53" d="M176.8,155.6c-18.3,0-33.7-11.4-36.7-27.1c0-0.1,0-0.2,0-0.3c3-15.7,18.5-27.1,36.7-27.1s33.7,11.4,36.7,27.1&#10;&#9;&#9;c0,0.1,0,0.2,0,0.3C210.5,144.2,195.1,155.6,176.8,155.6z M141.5,128.4c3,14.9,17.8,25.8,35.3,25.8s32.4-10.8,35.3-25.8&#10;&#9;&#9;c-2.9-15-17.8-25.8-35.3-25.8S144.4,113.4,141.5,128.4z"/>
</g>
<g id="Vegetables_meal-53">
	<path class="st3_meal-53 targetColor" d="M146.9,207.8c-0.6-0.3-9.2-1.3-5.6,6.9c0,0-6.7,5-3,9.2c0,0-3.8,5-1.2,7.9s4.1,3.3,4.1,3.3s-2.1,5.4,1.8,5.8&#10;&#9;&#9;s6.5-3.2,6.5-3.2s3,3.4,4.6,0.5s-0.1-8-0.1-8s2.8-1.4,2.5-6.3c0,0,3.7-0.4,4.5-5.8c0,0,3.3,4,6.8,0.3c0,0,2.5,6.2,5.2,4.2&#10;&#9;&#9;c0,0,2.8,3.6,6-0.6s7.7-7.8,1.7-11.7c0,0,1.3-3.2-3.9-4.5c0,0-0.3-5.4-6-3.5c0,0-2.3-5.4-6-2.8c0,0-4.3-4.1-7.1-0.3&#10;&#9;&#9;c0,0-7.7-3.8-9.3,2.4L146.9,207.8z" style="fill: rgb(104, 225, 253);"/>
	<path class="st1_meal-53" d="M143.6,241.6c-0.2,0-0.4,0-0.7,0c-1,0-1.9-0.6-2.4-1.4c-0.9-1.5-0.5-3.7-0.2-4.7c-1.4-0.9-2.7-2-3.8-3.2&#10;&#9;&#9;c-2.5-2.8-0.1-7,0.8-8.3c-0.7-1-1-2.1-0.9-3.3c0.3-2.8,2.9-5.2,3.9-6.1c-1.1-2.8-0.9-4.9,0.5-6.2s4.1-1.4,5.4-1.3l1.4-5.5&#10;&#9;&#9;c0.3-1.6,1.3-2.9,2.8-3.6c2.5-1.2,5.8,0,7,0.5c0.7-0.8,1.7-1.3,2.8-1.4c1.7,0,3.3,0.6,4.6,1.7c0.8-0.5,1.9-0.6,2.8-0.4&#10;&#9;&#9;c1.5,0.6,2.7,1.8,3.4,3.2c1.4-0.5,3-0.4,4.2,0.4c1.1,0.8,1.8,2,2,3.4c1.6,0.3,2.9,1.3,3.7,2.6c0.3,0.7,0.4,1.4,0.3,2.1&#10;&#9;&#9;c1.4,0.8,2.4,2.2,2.8,3.8c0.4,2.4-1.4,4.5-3.3,6.9c-0.5,0.6-1,1.2-1.4,1.8c-0.8,1.3-2.2,2.2-3.8,2.3c-1.1-0.1-2.1-0.5-2.9-1.3&#10;&#9;&#9;c-0.5,0.2-1.1,0.3-1.6,0.1c-1.7-0.5-3-2.8-3.7-4.1c-0.9,0.7-2,1.1-3.1,1.1c-1.1-0.1-2.2-0.5-3.1-1.2c-0.9,3.5-3.1,4.6-4.2,5&#10;&#9;&#9;c0,3.6-1.6,5.4-2.4,6.1c0.4,1.4,1.3,5.4-0.1,8c-0.4,0.8-1.1,1.4-2,1.5c-1.2,0-2.3-0.5-3.2-1.4C148.1,240.5,146,241.5,143.6,241.6z&#10;&#9;&#9; M145.3,208.3c-1.3-0.1-2.5,0.3-3.5,1.1c-0.9,1-0.9,2.6,0.2,5c0.1,0.3,0,0.6-0.2,0.8c0,0-3.5,2.6-3.8,5.5c-0.1,1,0.2,2,0.9,2.7&#10;&#9;&#9;c0.2,0.3,0.2,0.6,0,0.9c0,0.1-3.4,4.5-1.2,7c2.4,2.7,3.8,3.1,3.8,3.1c0.2,0.1,0.3,0.2,0.4,0.4c0.1,0.2,0.1,0.4,0,0.6&#10;&#9;&#9;c-0.3,0.8-0.9,3-0.2,4.1c0.3,0.5,0.8,0.7,1.4,0.8c3.4,0.3,5.9-2.9,5.9-2.9c0.1-0.2,0.3-0.3,0.5-0.3c0.2,0,0.4,0.1,0.6,0.2&#10;&#9;&#9;c0.4,0.4,1.6,1.6,2.5,1.5c0.1,0,0.5-0.1,0.9-0.8c1.4-2.6-0.1-7.4-0.2-7.4c-0.1-0.3,0-0.7,0.3-0.8c0.1-0.1,2.4-1.3,2.2-5.7&#10;&#9;&#9;c0-0.4,0.3-0.7,0.6-0.7c0.1,0,3.2-0.4,3.9-5.2c0-0.3,0.2-0.5,0.5-0.6c0.3-0.1,0.6,0,0.7,0.2c0.8,0.9,1.8,1.5,3,1.6&#10;&#9;&#9;c1.1,0,2.1-0.5,2.8-1.3c0.2-0.2,0.4-0.3,0.6-0.2c0.2,0,0.4,0.2,0.5,0.4c0.6,1.4,1.9,3.8,3.2,4.2c0.3,0.1,0.7,0,1-0.2&#10;&#9;&#9;c0.3-0.2,0.7-0.2,1,0.1c0,0,0,0,0,0c0.5,0.7,1.3,1.1,2.2,1.2l0,0c1.1-0.1,2.1-0.8,2.7-1.8c0.5-0.6,1-1.2,1.5-1.8&#10;&#9;&#9;c1.7-2.1,3.3-4,3-5.8c-0.2-1.1-1-2.1-2.6-3.1c-0.3-0.2-0.4-0.5-0.3-0.9c0.2-0.5,0.1-1.1-0.1-1.6c-0.5-0.9-1.6-1.6-3.3-2&#10;&#9;&#9;c-0.3-0.1-0.5-0.3-0.5-0.6c0-1.8-1.4-3.3-3.2-3.4c-0.6,0-1.3,0.2-1.8,0.5c-0.3,0.1-0.7,0-0.9-0.4c0,0-1.1-2.5-2.8-3&#10;&#9;&#9;c-0.7-0.2-1.5,0-2.1,0.5c-0.3,0.2-0.6,0.2-0.9-0.1c0,0-2-1.9-4-1.7c-0.9,0.1-1.6,0.6-2.1,1.3c-0.2,0.3-0.6,0.4-0.9,0.2&#10;&#9;&#9;c0,0-3.8-1.8-6.3-0.7c-1,0.5-1.8,1.5-2,2.6l-1.5,6.1c-0.1,0.2-0.2,0.4-0.4,0.5c-0.2,0.1-0.4,0.1-0.6,0&#10;&#9;&#9;C146.2,208.4,145.7,208.3,145.3,208.3z"/>
	<path class="st0_meal-53" d="M149.3,232.9c0,0,7.2-1.7,9.6,1.4s10,14.6,10,14.6s8.8-5.6,10.2-6.5c0,0-4.9-9.8-5.1-12.4s3.1-12.8,3.1-12.8&#10;&#9;&#9;l-2.9-1.6c0,0-4.1,12.1-4.8,10.6s-0.1-11.5-0.1-11.5l-5-0.1c0,0,1.5,10.7,0.4,10.8s-5.8-9.1-5.8-9.1l-5.3,5.2c0,0,8.6,6.2,6.6,7.1&#10;&#9;&#9;s-10.1-0.7-10.1-0.7L149.3,232.9z"/>
	<path class="st1_meal-53" d="M168.9,249.5c-0.2,0-0.5-0.1-0.6-0.3c-0.1-0.1-7.6-11.5-10-14.5c-1.7-2.2-7-1.6-8.8-1.1&#10;&#9;&#9;c-0.2,0.1-0.5,0-0.6-0.2c-0.2-0.2-0.3-0.4-0.2-0.6l0.8-5c0-0.2,0.1-0.4,0.3-0.5c0.2-0.1,0.4-0.1,0.5-0.1c2.9,0.6,8,1.2,9.5,0.8&#10;&#9;&#9;c-0.4-1-3.6-3.8-6.6-5.9c-0.2-0.1-0.3-0.3-0.3-0.5c0-0.2,0.1-0.4,0.2-0.6l5.3-5.2c0.2-0.2,0.4-0.2,0.6-0.2c0.2,0,0.4,0.2,0.5,0.4&#10;&#9;&#9;c1.4,2.9,3,5.7,4.9,8.3c0-3.2-0.3-6.4-0.8-9.6c0-0.2,0-0.4,0.2-0.6c0.1-0.2,0.3-0.3,0.5-0.2l5,0.1c0.4,0,0.7,0.3,0.7,0.7&#10;&#9;&#9;c0,0,0,0,0,0.1c-0.2,3.4-0.3,6.7-0.2,10.1c1.4-3.1,2.7-6.3,3.7-9.5c0.1-0.4,0.5-0.6,0.9-0.4c0,0,0.1,0,0.1,0.1l2.9,1.6&#10;&#9;&#9;c0.3,0.2,0.4,0.5,0.3,0.8c-0.9,2.8-3.1,10.5-3,12.5s3.7,9.5,5,12.2c0.2,0.3,0.1,0.7-0.3,0.9c-1.4,0.9-10.1,6.4-10.2,6.5&#10;&#9;&#9;C169.1,249.4,169,249.5,168.9,249.5z M153.5,231.7c2.2,0,4.6,0.4,6,2.1c2.1,2.7,8.1,11.6,9.7,14c1.8-1.1,7.1-4.6,9.1-5.8&#10;&#9;&#9;c-1.1-2.3-4.7-9.8-4.9-12.1s2.2-10.2,2.9-12.5l-1.6-0.9c-3.5,10.3-4.5,10.4-5,10.4c-0.4,0-0.7-0.2-0.8-0.5&#10;&#9;&#9;c-0.7-1.4-0.4-8.4-0.2-11.1h-3.5c0.5,3.8,1.1,9.4,0.3,10.4c-0.2,0.2-0.4,0.3-0.6,0.4c-0.5,0.1-1.5,0.2-6.1-8.6l-4,4&#10;&#9;&#9;c2.8,2.1,6.7,5.3,6.6,6.9c0,0.4-0.3,0.8-0.7,0.9c-1.8,0.8-7.5-0.1-9.8-0.5l-0.5,3.3C151.3,231.8,152.4,231.7,153.5,231.7z"/>
	<path class="st3_meal-53 targetColor" d="M159.9,213.2c-2.1,9.2-8.3,9.7-8.3,9.7" style="fill: rgb(104, 225, 253);"/>
	<path class="st1_meal-53" d="M151.6,223.6c-0.4,0-0.7-0.3-0.7-0.7s0.3-0.7,0.7-0.7c0.2,0,5.7-0.6,7.7-9.2c0.1-0.4,0.4-0.6,0.8-0.6&#10;&#9;&#9;c0.4,0.1,0.6,0.4,0.6,0.8c0,0,0,0.1,0,0.1C158.3,223,151.9,223.6,151.6,223.6L151.6,223.6z"/>
	<path class="st3_meal-53 targetColor" d="M150,224.8c0,0,5.4,1,1.6,6.4c0,0,2.3,2.2-1,4.2s-5.5,0.7-5.5,0.7" style="fill: rgb(104, 225, 253);"/>
	<path class="st1_meal-53" d="M147,237.1c-0.8,0-1.6-0.2-2.3-0.5c-0.3-0.2-0.5-0.6-0.3-0.9c0,0,0,0,0-0.1c0.2-0.3,0.6-0.5,1-0.3c0,0,0,0,0,0&#10;&#9;&#9;c0.1,0.1,1.9,1.1,4.8-0.7c0.6-0.4,1.4-0.9,1.4-1.7c0-0.5-0.2-1-0.5-1.4c-0.3-0.2-0.3-0.6-0.1-0.9c0.7-1,1.5-2.5,1.1-3.6&#10;&#9;&#9;s-2.3-1.6-2.3-1.6c-0.4-0.1-0.6-0.4-0.6-0.8c0,0,0,0,0,0c0.1-0.4,0.4-0.6,0.8-0.6c0.1,0,2.5,0.5,3.3,2.5c0.5,1.3,0.2,2.8-0.9,4.5&#10;&#9;&#9;c0.4,0.6,0.6,1.3,0.6,2.1c-0.2,1.2-1,2.3-2.1,2.8C149.8,236.7,148.4,237.1,147,237.1z"/>
	<path class="st3_meal-53 targetColor" d="M161.7,213.1c0.1,1.4,1.1,3,2.6,3.1c0.5,0.1,4.6-0.5,4.2-1.5c0.7,1.9,2.9,2.8,4.7,2c1.1-0.4,1.9-1.3,2.2-2.4&#10;&#9;&#9;c-0.2,1.4,1.4,2.6,2.8,2.3c1.4-0.4,2.5-1.4,3.1-2.7c0.4-0.6,0.4-1.4,0.1-2" style="fill: rgb(104, 225, 253);"/>
	<path class="st1_meal-53" d="M171.8,217.7c-1.4,0-2.6-0.7-3.5-1.7c-1.3,0.6-2.7,0.9-4.2,0.9c-1.9-0.2-3-2-3.2-3.8c-0.1-0.4,0.2-0.7,0.6-0.8&#10;&#9;&#9;c0.4-0.1,0.7,0.2,0.8,0.6c0,0,0,0.1,0,0.1c0.1,1.1,0.8,2.4,1.9,2.5c1.2-0.1,2.3-0.3,3.4-0.8c0-0.4,0.3-0.7,0.7-0.7&#10;&#9;&#9;c0.3,0,0.5,0.2,0.7,0.4l0,0c0.6,1.5,2.3,2.2,3.8,1.7c0.9-0.3,1.5-1.1,1.8-2c0.1-0.4,0.5-0.6,0.8-0.5c0.4,0.1,0.6,0.4,0.6,0.8&#10;&#9;&#9;c0,0.4,0.1,0.8,0.4,1c0.4,0.4,1,0.6,1.6,0.5c1.1-0.4,2.1-1.2,2.6-2.3c0.3-0.6,0.4-1.1,0.2-1.3c-0.2-0.3-0.2-0.7,0.1-1&#10;&#9;&#9;s0.7-0.2,1,0.1c0.6,0.8,0.6,1.9,0,2.8c-0.7,1.5-2,2.6-3.6,3c-1,0.1-2.1-0.2-2.8-0.9c-0.1-0.1-0.2-0.2-0.3-0.3&#10;&#9;&#9;c-0.8,0.9-1.9,1.5-3.1,1.6L171.8,217.7z"/>
	<path class="st3_meal-53 targetColor" d="M223.8,173.5c-0.3-0.6-7.1-7.9-9.9,1.9c0,0-9.5-0.5-9.4,5.8c0,0-6.9,1.6-6.8,6s1.1,5.9,1.1,5.9&#10;&#9;&#9;s-5.8,3.2-2.7,6.4s8,2,8,2s0.1,5.2,3.6,3.8s5.7-7.1,5.7-7.1s3.5,0.8,6.9-3.7c0,0,3.5,2.4,8.2-1.8c0,0,0,5.9,5.8,5.3&#10;&#9;&#9;c0,0-2.4,7.3,1.5,7.5c0,0-0.2,5.2,5.7,3.9s12.4-1.2,10-9.1c0,0,3.5-1.9-0.1-6.8c0,0,3.7-5-2.7-7.4c0,0,1.9-6.4-3.2-6.8&#10;&#9;&#9;c0,0-0.8-6.7-6-5.5c0,0-4-8.9-9.9-4.7L223.8,173.5z" style="fill: rgb(104, 225, 253);"/>
	<path class="st1_meal-53" d="M239.8,210.6c-1.1,0-2.2-0.3-3-1c-0.9-0.8-1.5-2-1.6-3.2c-0.6-0.1-1.2-0.5-1.5-1.1c-1.1-1.7-0.6-4.7-0.2-6.3&#10;&#9;&#9;c-1.3,0-2.6-0.4-3.6-1.3c-0.9-0.9-1.6-2.1-1.8-3.4c-3.4,2.6-6.3,1.9-7.4,1.3c-2.7,3.3-5.4,3.6-6.6,3.6c-0.6,1.4-2.8,5.7-5.9,7&#10;&#9;&#9;c-0.9,0.4-1.9,0.4-2.8-0.1c-1.2-0.8-1.6-2.5-1.8-3.5c-1.6,0.2-5.3,0.3-7.9-2.3c-0.8-0.7-1.2-1.8-1.1-2.9c0.3-2,2.3-3.6,3.4-4.2&#10;&#9;&#9;c-0.6-1.8-1-3.7-0.9-5.6c-0.1-4.3,5.1-6.1,6.8-6.6c0.1-1.4,0.6-2.6,1.6-3.6c2.3-2.2,6.4-2.4,7.9-2.4c1.1-3.3,2.7-5,4.9-5.1&#10;&#9;&#9;c2.4-0.1,4.7,1.8,5.7,2.9l5.4-3.8c1.4-1.1,3.2-1.5,4.9-1.1c3.1,0.8,5.1,4.3,5.8,5.6c1.2-0.2,2.4,0,3.5,0.7c1.9,1.3,2.6,3.8,2.8,4.9&#10;&#9;&#9;c1.1,0.2,2.1,0.8,2.8,1.7c1.2,1.7,0.9,4.2,0.6,5.4c1.6,0.6,2.9,1.8,3.4,3.4c0.4,1.5,0.1,3.1-0.8,4.4c1.2,1.9,1.7,3.6,1.4,5&#10;&#9;&#9;c-0.2,0.8-0.7,1.6-1.3,2.1c0.6,2.3,0.5,4-0.3,5.4c-1.4,2.3-4.5,2.9-7.8,3.6c-0.9,0.2-1.7,0.3-2.6,0.5&#10;&#9;&#9;C241.1,210.4,240.4,210.5,239.8,210.6z M234.4,197.6c0.2,0,0.4,0.1,0.6,0.3c0.1,0.2,0.2,0.4,0.1,0.7c-0.4,1.2-1.2,4.7-0.2,6.1&#10;&#9;&#9;c0.2,0.4,0.6,0.6,1.1,0.6c0.4,0,0.7,0.3,0.7,0.7c0,1,0.4,2,1.1,2.7c0.8,0.7,2.1,0.8,3.7,0.4c0.9-0.2,1.8-0.4,2.6-0.5&#10;&#9;&#9;c3-0.6,5.8-1.1,6.9-2.9c0.6-1.1,0.6-2.6,0-4.7c-0.1-0.3,0-0.7,0.3-0.8c0.6-0.4,0.9-0.9,1.1-1.6c0.2-1.1-0.2-2.6-1.4-4.3&#10;&#9;&#9;c-0.2-0.2-0.2-0.6,0-0.8c0.7-1,1-2.3,0.8-3.6c-0.3-1.1-1.4-2.1-3.2-2.8c-0.3-0.1-0.5-0.5-0.4-0.9c0,0,0.9-3.1-0.3-4.8&#10;&#9;&#9;c-0.5-0.7-1.4-1.2-2.3-1.2c-0.3,0-0.6-0.3-0.6-0.6c0,0-0.4-3.1-2.3-4.4c-0.9-0.6-1.9-0.7-2.9-0.4c-0.3,0.1-0.7-0.1-0.8-0.4&#10;&#9;&#9;c0,0-2-4.5-5.1-5.3c-1.3-0.3-2.7,0-3.7,0.9l-5.9,4.2c-0.2,0.1-0.4,0.2-0.6,0.1c-0.2-0.1-0.4-0.2-0.4-0.4c-0.3-0.5-2.8-3-5-2.7&#10;&#9;&#9;c-1.6,0.2-2.8,1.7-3.6,4.6c-0.1,0.3-0.4,0.5-0.7,0.5c-0.1,0-5.1-0.2-7.4,2c-0.8,0.8-1.3,1.9-1.2,3.1c0,0.3-0.2,0.6-0.5,0.7&#10;&#9;&#9;c-0.1,0-6.4,1.5-6.2,5.3c0.1,4.1,1,5.6,1,5.6c0.1,0.2,0.1,0.4,0.1,0.6c0,0.2-0.2,0.3-0.3,0.4c-0.8,0.5-3,2-3.2,3.6&#10;&#9;&#9;c-0.1,0.7,0.2,1.3,0.7,1.8c2.8,2.9,7.3,1.8,7.4,1.8c0.2,0,0.4,0,0.6,0.1c0.2,0.1,0.3,0.3,0.3,0.5c0,0.7,0.3,2.6,1.2,3.2&#10;&#9;&#9;c0.5,0.3,1,0.3,1.5,0c3.2-1.3,5.3-6.6,5.3-6.7c0.1-0.3,0.5-0.5,0.8-0.4c0.1,0,3.1,0.6,6.1-3.4c0.2-0.3,0.7-0.4,1-0.2c0,0,0,0,0,0&#10;&#9;&#9;c0.1,0.1,3.2,2,7.3-1.8c0.3-0.3,0.7-0.2,1,0c0.1,0.1,0.2,0.3,0.2,0.5c0,1.4,0.6,2.7,1.5,3.7C231.9,197.5,233.1,197.8,234.4,197.6&#10;&#9;&#9;L234.4,197.6z"/>
	<path class="st0_meal-53" d="M207.6,197.3c0,0,7.5,3.8,7.4,8.2s-1.9,20.1-1.9,20.1s11.8,1.5,13.7,1.8c0,0,2.9-12.2,4.6-14.6s12-8.9,12-8.9&#10;&#9;&#9;l-1.3-3.5c0,0-12.4,7.6-12,5.8s8.3-10.1,8.3-10.1l-4.4-3.7c0,0-6.5,10.5-7.6,9.8s1.6-12.2,1.6-12.2l-8.5,0.7c0,0,3,11.7,0.6,11.1&#10;&#9;&#9;s-8.3-8-8.3-8L207.6,197.3z"/>
	<path class="st1_meal-53" d="M226.8,228h-0.1c-1.8-0.3-13.5-1.8-13.7-1.8c-0.4,0-0.6-0.4-0.6-0.7c0,0,0,0,0,0c0-0.1,1.7-15.6,1.9-20&#10;&#9;&#9;c0.1-3.9-6.9-7.5-7-7.6c-0.2-0.1-0.4-0.3-0.4-0.5c0-0.2,0.1-0.5,0.2-0.6l4.3-3.8c0.3-0.3,0.7-0.2,1,0.1c2.2,2.7,6.2,7.1,7.9,7.7&#10;&#9;&#9;c0.4-0.9-0.2-5.5-1.4-10.2c0-0.2,0-0.4,0.1-0.6c0.1-0.2,0.3-0.3,0.5-0.3l8.5-0.7c0.2,0,0.4,0.1,0.6,0.2c0.2,0.2,0.2,0.4,0.2,0.6&#10;&#9;&#9;c-1,4.4-1.9,9.4-1.8,11.1c1.2-1.2,4.2-5.4,6.5-9.2c0.1-0.2,0.3-0.3,0.5-0.3c0.2,0,0.4,0,0.6,0.2l4.4,3.7c0.1,0.1,0.2,0.3,0.2,0.5&#10;&#9;&#9;c0,0.2-0.1,0.4-0.2,0.5c-2.7,2.8-5.3,5.8-7.7,9c3.6-1.7,7.1-3.6,10.5-5.7c0.2-0.1,0.4-0.1,0.6-0.1c0.2,0.1,0.4,0.2,0.4,0.4l1.3,3.5&#10;&#9;&#9;c0.1,0.3,0,0.7-0.3,0.8c-2.8,1.8-10.4,6.9-11.8,8.8s-3.7,11-4.5,14.4C227.3,227.8,227.1,228,226.8,228z M213.9,224.9&#10;&#9;&#9;c2.3,0.3,9.8,1.2,12.4,1.6c0.6-2.6,3-12.1,4.6-14.3s9.6-7.5,11.7-8.8l-0.8-2.2c-10.7,6.5-11.6,5.8-12,5.6c-0.3-0.2-0.4-0.6-0.3-1&#10;&#9;&#9;c0.4-1.7,6-7.8,8-9.9l-3.2-2.7c-2,3.2-5.9,9.1-7.4,9.4c-0.2,0.1-0.5,0-0.7-0.1c-0.4-0.2-1.4-0.9,1.1-12.1l-6.7,0.6&#10;&#9;&#9;c0.8,3.3,2.1,9.5,0.8,10.8c-0.3,0.3-0.8,0.4-1.2,0.3c-2.2-0.6-6.7-5.8-8.2-7.6l-3,2.6c2.1,1.2,7,4.5,6.8,8.4&#10;&#9;&#9;S214.2,221.8,213.9,224.9L213.9,224.9z"/>
	<path class="st3_meal-53 targetColor" d="M231.3,187.7c-8.6,6.5-14.4,2.4-14.4,2.4" style="fill: rgb(104, 225, 253);"/>
	<path class="st1_meal-53" d="M221.7,192.1c-1.9,0.1-3.7-0.4-5.2-1.4c-0.3-0.2-0.4-0.7-0.2-1c0,0,0,0,0,0c0.2-0.3,0.7-0.4,1-0.2c0,0,0,0,0,0&#10;&#9;&#9;c0.2,0.2,5.5,3.7,13.6-2.4c0.3-0.2,0.8-0.2,1,0.1s0.2,0.8-0.1,1C227.7,191.3,224.3,192.1,221.7,192.1z"/>
	<path class="st3_meal-53 targetColor" d="M214.1,190.7c0,0,4,4.9-3.2,6.8c0,0,0.4,3.6-3.9,2.9s-5.3-3.5-5.3-3.5" style="fill: rgb(104, 225, 253);"/>
	<path class="st1_meal-53" d="M208,201.2c-0.4,0-0.8,0-1.2-0.1c-4.7-0.8-5.8-3.8-5.9-3.9c-0.1-0.4,0.1-0.8,0.4-0.9s0.8,0.1,0.9,0.4&#10;&#9;&#9;c0,0.1,0.9,2.4,4.8,3c0.9,0.3,1.8,0.1,2.6-0.4c0.4-0.5,0.6-1.1,0.6-1.7c0-0.3,0.2-0.7,0.5-0.8c2.1-0.5,3.3-1.4,3.7-2.4&#10;&#9;&#9;c0.5-1.5-0.8-3.2-0.8-3.2c-0.2-0.3-0.2-0.7,0.1-1c0,0,0,0,0,0c0.3-0.3,0.7-0.2,1,0.1c0,0,0,0,0,0c0.1,0.1,1.8,2.3,1.1,4.5&#10;&#9;&#9;c-0.5,1.5-1.9,2.6-4.1,3.2c0,0.8-0.4,1.6-1,2.2C209.9,200.9,209,201.2,208,201.2z"/>
	<path class="st3_meal-53 targetColor" d="M232.9,189c-0.9,1.3-1.2,3.4,0,4.6c0.4,0.4,4.4,2.9,4.8,1.7c-0.7,2.2,0.5,4.5,2.7,5.2c1.2,0.4,2.6,0.2,3.7-0.5&#10;&#9;&#9;c-1.2,1-0.6,3.2,0.7,4c1.5,0.7,3.2,0.6,4.6-0.1c0.8-0.3,1.6-0.9,1.6-1.7" style="fill: rgb(104, 225, 253);"/>
	<path class="st1_meal-53" d="M246.7,205.2c-0.8,0-1.6-0.2-2.3-0.6c-1-0.6-1.6-1.6-1.7-2.8c0-0.2,0-0.4,0-0.6c-2.6,0.6-5.2-1.1-5.8-3.7&#10;&#9;&#9;c-0.1-0.4-0.1-0.9-0.1-1.3c-1.6-0.4-3.1-1.2-4.4-2.2c-1.4-1.5-1.1-3.9,0-5.5c0.2-0.3,0.7-0.4,1-0.2c0.3,0.2,0.4,0.7,0.2,1l0,0&#10;&#9;&#9;c-0.7,1.1-1,2.8-0.1,3.8c1.1,0.8,2.3,1.5,3.6,1.8l0,0c0.2-0.3,0.5-0.4,0.8-0.3c0.4,0.1,0.6,0.5,0.4,0.9c0,0,0,0,0,0l0,0&#10;&#9;&#9;c-0.6,1.8,0.4,3.8,2.2,4.4c1,0.3,2.2,0.2,3.1-0.5c0.3-0.2,0.8-0.2,1,0.1c0,0,0,0,0,0c0.3,0.3,0.2,0.7-0.1,1c0,0,0,0,0,0&#10;&#9;&#9;c-0.3,0.3-0.5,0.8-0.4,1.2c0.1,0.7,0.4,1.3,1,1.7c1.3,0.6,2.8,0.5,4-0.1c0.3-0.1,1.1-0.6,1.2-1.1c0-0.4,0.3-0.7,0.7-0.7&#10;&#9;&#9;c0,0,0,0,0,0c0.4,0,0.7,0.3,0.7,0.7c0,0.9-0.7,1.8-2,2.3C248.7,205,247.7,205.2,246.7,205.2z M237,195.1L237,195.1z"/>
	<path class="st3_meal-53 targetColor" d="M179.4,189.5c-0.6-0.5-10.3-4.6-8.9,6.2c0,0-9.5,3.6-6.6,9.7c0,0-6.1,4.6-4,8.8s3.7,5.3,3.7,5.3&#10;&#9;&#9;s-4.2,5.7,0.2,7.4s8.7-1.5,8.7-1.5s2.4,5.1,5.2,2.1s2.5-9.4,2.5-9.4s3.7-0.8,5.1-6.6c0,0,4.5,0.8,7.2-5.3c0,0,2.5,5.8,7.9,2.7&#10;&#9;&#9;c0,0,0.9,8.2,4.7,6.7c0,0,2.1,5.2,7.2,1.3s11.6-6.6,5.9-13.2c0,0,2.6-3.3-3.1-6.6c0,0,1.4-6.4-5.8-6.1c0,0-0.9-7.1-6.1-5.3&#10;&#9;&#9;c0,0-3.7-6.2-8.2-2.7c0,0-7.8-7-11.7-0.3L179.4,189.5z" style="fill: rgb(104, 225, 253);"/>
	<path class="st1_meal-53" d="M175.9,229.2c-0.1,0-0.3,0-0.4,0c-1.5-0.2-2.7-1.8-3.2-2.7c-1.4,0.9-5,2.6-8.7,1.2c-1.1-0.4-2-1.3-2.3-2.4&#10;&#9;&#9;c-0.6-2,0.8-4.5,1.4-5.6c-1.4-1.5-2.6-3.2-3.4-5.1c-2-4.1,2.4-8.2,3.8-9.4c-0.5-1.3-0.5-2.8,0-4.2c1.3-3.2,5.2-5.2,6.7-5.8&#10;&#9;&#9;c-0.4-3.6,0.5-6,2.6-7.1c2.3-1.1,5.4-0.3,6.8,0.4l3.6-6.1c0.9-1.7,2.5-2.8,4.3-3.2c3.3-0.5,6.8,2,8,2.9c1.1-0.7,2.4-1,3.7-0.8&#10;&#9;&#9;c2.4,0.4,4.1,2.6,4.8,3.6c1.2-0.3,2.4-0.2,3.4,0.4c1.9,1.2,2.7,3.8,2.9,5l0,0c1.8-0.1,3.6,0.5,4.8,1.9c1,1.3,1.4,3,1.1,4.6&#10;&#9;&#9;c2,1.3,3.2,2.7,3.5,4.3c0.2,0.9,0,1.8-0.4,2.6c1.6,1.9,2.3,3.7,2.1,5.3c-0.4,2.8-3.1,4.8-6.1,6.8c-0.8,0.5-1.5,1.1-2.3,1.6&#10;&#9;&#9;c-1.8,1.4-3.5,1.9-5.1,1.4c-1.3-0.4-2.4-1.3-3-2.5c-0.7,0.1-1.4,0-1.9-0.4c-1.9-1.1-2.6-4.4-2.9-6.1c-1.3,0.6-2.7,0.7-4.1,0.3&#10;&#9;&#9;c-1.3-0.5-2.5-1.4-3.2-2.6c-2.3,4.1-5.3,4.6-6.7,4.6l0,0c-1.2,4.4-3.8,5.9-4.9,6.3c0,1.7-0.2,6.7-2.7,9.4&#10;&#9;&#9;C177.5,228.8,176.7,229.2,175.9,229.2z M172.4,224.8h0.2c0.2,0,0.4,0.2,0.5,0.4c0.3,0.7,1.4,2.4,2.6,2.6c0.6,0,1.1-0.2,1.5-0.7&#10;&#9;&#9;c2.6-2.6,2.3-8.8,2.3-8.9c0-0.3,0.2-0.6,0.6-0.7c0.1,0,3.3-0.8,4.6-6.1c0.1-0.4,0.4-0.6,0.8-0.5c0.2,0,4,0.6,6.4-4.9&#10;&#9;&#9;c0.1-0.3,0.4-0.4,0.6-0.4l0,0c0.3,0,0.5,0.2,0.6,0.4c0.6,1.4,1.7,2.4,3.1,3c1.3,0.3,2.7,0.1,3.8-0.7c0.2-0.1,0.5-0.1,0.7,0&#10;&#9;&#9;c0.2,0.1,0.3,0.3,0.4,0.6c0.1,1.4,0.9,5.1,2.4,6.1c0.4,0.2,0.9,0.3,1.3,0.1c0.4-0.1,0.8,0,0.9,0.4c0.4,1,1.3,1.8,2.3,2.2&#10;&#9;&#9;c1.1,0.3,2.4-0.1,3.9-1.2c0.8-0.6,1.5-1.1,2.3-1.7c2.7-1.9,5.2-3.6,5.5-5.9c0.2-1.4-0.5-2.9-2.1-4.6c-0.2-0.3-0.2-0.6,0-0.9&#10;&#9;&#9;c0.4-0.6,0.5-1.3,0.4-2c-0.2-1.2-1.4-2.5-3.2-3.6c-0.3-0.2-0.4-0.5-0.3-0.8c0.3-1.3,0-2.8-0.8-3.9c-0.8-1-2.3-1.4-4.3-1.3&#10;&#9;&#9;c-0.4,0-0.7-0.2-0.7-0.6c0,0-0.5-3.4-2.4-4.6c-0.8-0.5-1.9-0.5-2.8-0.2c-0.3,0.1-0.7,0-0.8-0.3c0,0-1.8-2.9-4.2-3.4&#10;&#9;&#9;c-1.1-0.2-2.2,0.1-3,0.9c-0.3,0.2-0.6,0.2-0.9,0c0,0-3.9-3.5-7.3-3c-1.4,0.3-2.7,1.2-3.3,2.5l-4,6.6c-0.1,0.2-0.3,0.3-0.5,0.3&#10;&#9;&#9;c-0.2,0-0.4,0-0.6-0.2c-0.5-0.3-4-1.8-6.1-0.5c-1.5,0.9-2,2.9-1.6,6.1c0,0.3-0.1,0.6-0.4,0.8c-0.1,0-5.1,2-6.4,5.2&#10;&#9;&#9;c-0.5,1.2-0.4,2.5,0.2,3.6c0.1,0.3,0.1,0.7-0.2,0.9c-0.1,0-5.6,4.3-3.8,8c1.9,4,3.4,5,3.4,5c0.2,0.1,0.3,0.3,0.3,0.5&#10;&#9;&#9;c0,0.2,0,0.4-0.1,0.6c-0.6,0.8-2.1,3.3-1.6,4.9c0.2,0.7,0.8,1.2,1.5,1.5c4,1.6,8-1.4,8-1.4C172.2,224.8,172.3,224.8,172.4,224.8&#10;&#9;&#9;L172.4,224.8z"/>
	<path class="st0_meal-53" d="M173.8,219.7c0,0,8.9,0.4,10.7,4.8s6.9,20.4,6.9,20.4s12.2-3.6,14.1-4.2c0,0-2.5-13.2-1.8-16.3&#10;&#9;&#9;s7.8-13.9,7.8-13.9l-2.8-2.9c0,0-8.8,12.8-9.2,10.8s3.7-13.4,3.7-13.4l-5.9-1.8c0,0-1.8,13-3.1,12.8s-3.8-12.6-3.8-12.6l-8,4.3&#10;&#9;&#9;c0,0,8,10.1,5.4,10.5s-11.6-4.2-11.6-4.2L173.8,219.7z"/>
	<path class="st1_meal-53" d="M191.4,245.6c-0.3,0-0.6-0.2-0.7-0.5c-0.1-0.2-5.1-16-6.9-20.3c-1.6-3.9-10-4.4-10.1-4.4&#10;&#9;&#9;c-0.2,0-0.4-0.1-0.6-0.3c-0.1-0.2-0.1-0.4,0-0.6l2.6-5.6c0.1-0.2,0.2-0.3,0.4-0.4c0.2-0.1,0.4-0.1,0.5,0c3.4,1.7,9.3,4.3,11.1,4.1&#10;&#9;&#9;c0.1-1-2.5-5.2-5.8-9.4c-0.1-0.2-0.2-0.4-0.1-0.6c0-0.2,0.2-0.4,0.4-0.5l7.9-4.3c0.2-0.1,0.4-0.1,0.6,0c0.2,0.1,0.3,0.3,0.4,0.5&#10;&#9;&#9;c0.9,4.8,2.3,10.2,3.1,11.8c0.7-1.6,1.8-7.1,2.4-11.9c0-0.4,0.4-0.7,0.8-0.6c0,0,0.1,0,0.1,0l5.9,1.8c0.2,0.1,0.3,0.2,0.4,0.4&#10;&#9;&#9;c0.1,0.2,0.1,0.4,0,0.6c-1.5,4-2.7,8.1-3.6,12.3c2.9-3.2,5.5-6.7,7.9-10.3c0.1-0.2,0.3-0.3,0.5-0.3c0.2,0,0.4,0.1,0.6,0.2l2.8,2.9&#10;&#9;&#9;c0.2,0.2,0.3,0.6,0.1,0.9c-2,3-7.2,11.3-7.7,13.7s1.1,12.4,1.8,16c0.1,0.4-0.1,0.7-0.5,0.8c-1.9,0.5-14,4.1-14.1,4.2L191.4,245.6z&#10;&#9;&#9; M174.9,219c2.5,0.3,8.8,1.3,10.3,5.2s5.7,16.7,6.7,19.8c2.3-0.7,10.2-3.1,12.8-3.8c-0.5-2.7-2.3-13.1-1.7-15.9s6.2-11.5,7.6-13.7&#10;&#9;&#9;l-1.8-1.9c-7.6,11-8.8,10.7-9.3,10.6c-0.4-0.1-0.6-0.4-0.7-0.8c-0.3-1.9,2.5-10.2,3.5-13.1l-4.4-1.3c-0.6,3.9-1.8,11.4-3.1,12.4&#10;&#9;&#9;c-0.2,0.2-0.5,0.2-0.7,0.2c-0.4-0.1-1.8-0.3-4.2-12.2l-6.4,3.5c2.2,2.9,6.2,8.4,5.5,10.2c-0.2,0.4-0.6,0.7-1,0.8&#10;&#9;&#9;c-2.4,0.3-9.1-2.8-11.3-3.9L174.9,219z"/>
	<path class="st3_meal-53 targetColor" d="M192.8,200.1c-5.6,10.1-13,8.6-13,8.6" style="fill: rgb(104, 225, 253);"/>
	<path class="st1_meal-53" d="M180.9,209.5c-0.4,0-0.8,0-1.2-0.1c-0.4-0.1-0.6-0.4-0.6-0.8c0,0,0,0,0,0c0.1-0.4,0.4-0.6,0.8-0.6c0,0,0,0,0,0&#10;&#9;&#9;c0.3,0.1,7,1.2,12.3-8.3c0.2-0.3,0.6-0.4,1-0.2c0.3,0.2,0.4,0.6,0.3,0.9C188.9,208.5,183.3,209.5,180.9,209.5z"/>
	<path class="st3_meal-53 targetColor" d="M177.2,210.5c0,0,6,3-0.2,8c0,0,1.9,3.3-2.6,4.5s-6.7-1.1-6.7-1.1" style="fill: rgb(104, 225, 253);"/>
	<path class="st1_meal-53" d="M171.9,224.1c-1.7,0.1-3.4-0.5-4.6-1.6c-0.3-0.3-0.3-0.7,0-1s0.7-0.3,1,0l0,0c0.1,0.1,2,2,6,0.9&#10;&#9;&#9;c1-0.1,1.9-0.7,2.4-1.6c0.2-0.6,0.1-1.3-0.2-1.9c-0.2-0.3-0.1-0.7,0.2-0.9c1.8-1.4,2.7-2.8,2.5-4c-0.2-1.7-2.2-2.8-2.2-2.8&#10;&#9;&#9;c-0.3-0.2-0.5-0.6-0.3-0.9c0,0,0,0,0,0c0.2-0.3,0.6-0.5,0.9-0.3c0.1,0.1,2.7,1.4,3,3.9c0.2,1.6-0.7,3.3-2.6,4.9&#10;&#9;&#9;c0.3,0.8,0.3,1.8,0,2.6c-0.7,1.3-1.9,2.2-3.3,2.4C173.7,223.9,172.8,224,171.9,224.1z"/>
	<path class="st3_meal-53 targetColor" d="M194.9,200.6c-0.3,1.7,0.3,3.8,2,4.5c0.6,0.2,5.5,0.9,5.4-0.4c0.2,2.4,2.4,4.2,4.8,4c1.4-0.1,2.6-0.9,3.4-2.1&#10;&#9;&#9;c-0.7,1.6,0.8,3.4,2.5,3.6c1.7,0,3.4-0.8,4.5-2.1c0.7-0.6,1-1.5,0.8-2.3" style="fill: rgb(104, 225, 253);"/>
	<path class="st1_meal-53" d="M213.3,211c-1.4,0-2.7-0.8-3.4-2c-0.1-0.2-0.2-0.4-0.3-0.6c-2.2,1.7-5.4,1.3-7.1-0.9c-0.3-0.4-0.6-0.9-0.8-1.4&#10;&#9;&#9;c-1.7,0.3-3.5,0.2-5.2-0.2c-2-0.8-2.7-3.3-2.4-5.3c0.1-0.4,0.4-0.6,0.8-0.6c0.4,0.1,0.6,0.4,0.6,0.8c-0.2,1.4,0.2,3.2,1.5,3.8&#10;&#9;&#9;c0.6,0.2,3.7,0.6,4.4,0.2c0-0.4,0.4-0.7,0.8-0.6c0.3,0,0.6,0.3,0.6,0.6l0,0c0.2,2.1,2,3.6,4.1,3.4c1.2-0.1,2.2-0.8,2.8-1.8&#10;&#9;&#9;c0.2-0.3,0.6-0.4,0.9-0.3c0.3,0.2,0.5,0.6,0.3,0.9c-0.2,0.5-0.1,1,0.1,1.4c0.4,0.7,1,1.1,1.8,1.2c1.5,0,3-0.7,3.9-1.9&#10;&#9;&#9;c0.3-0.3,0.9-1.1,0.7-1.6c-0.2-0.4,0-0.8,0.4-0.9c0,0,0,0,0,0c0.4-0.1,0.8,0,0.9,0.4c0.3,1.1-0.1,2.3-0.9,3.1&#10;&#9;&#9;C216.7,210,215.1,210.9,213.3,211z"/>
	<circle class="st1_meal-53" cx="242.5" cy="131.1" r="14.8"/>
	<path class="st1_meal-53" d="M242.4,146.7c-8.6,0-15.6-7-15.6-15.6s7-15.6,15.6-15.6s15.6,7,15.6,15.6c0,3.5-1.2,6.8-3.3,9.6&#10;&#9;&#9;C251.8,144.5,247.3,146.7,242.4,146.7z M242.4,117.1c-7.8,0-14.1,6.3-14.1,14s6.3,14.1,14,14.1s14.1-6.3,14.1-14&#10;&#9;&#9;c0-4.3-2-8.4-5.4-11.1C248.6,118.1,245.6,117.1,242.4,117.1L242.4,117.1z"/>
	<circle class="st1_meal-53" cx="280.9" cy="136" r="14.8"/>
	<path class="st1_meal-53" d="M280.8,151.6c-8.6,0-15.6-7-15.6-15.6c0-8.6,7-15.6,15.6-15.6s15.6,7,15.6,15.6c0,3.5-1.2,6.8-3.3,9.6l0,0&#10;&#9;&#9;C290.2,149.4,285.6,151.6,280.8,151.6z M280.8,121.9c-7.8,0-14.1,6.3-14.1,14c0,7.8,6.3,14.1,14,14.1c7.8,0,14.1-6.3,14.1-14&#10;&#9;&#9;c0-4.3-2-8.5-5.4-11.1C287,123,284,121.9,280.8,121.9L280.8,121.9z M292.5,145.1L292.5,145.1z"/>
	<path class="st0_meal-53" d="M243.1,120.9c1.1-1.5,1.6-3.3,1.6-5.1c-1.5-0.1-2.9,0.6-3.8,1.8c-0.8,1.2-1.5,2.4-1.9,3.8&#10;&#9;&#9;c-3.7-1.3-7.8-1.1-11.4,0.5c2.9,0.9,6,1.5,9,1.9c-2.5,2.1-2.4,5.9-2.2,9.1l3.2-5.9c1.8,1.7,3.9,2.9,6.1,3.6&#10;&#9;&#9;c0.6,0.2,5.6,0.8,5.6,0.8c-1.1-2.5-2.8-4.6-4.9-6.2c1.7-1.1,3.6-2.1,5.5-2.8c0.5-0.2,4.5-1.8,4.5-1.8&#10;&#9;&#9;C251.2,119,246.6,119.4,243.1,120.9z"/>
	<path class="st1_meal-53" d="M234.6,133.6c0,0-0.1,0-0.1,0c-0.3-0.1-0.5-0.3-0.5-0.6c-0.2-3.2-0.2-6.4,1.5-8.6c-2.6-0.4-5.2-1-7.8-1.8&#10;&#9;&#9;c-0.3-0.1-0.5-0.3-0.5-0.6c0-0.3,0.1-0.6,0.4-0.7c3.5-1.7,7.5-1.9,11.2-0.8c0.4-1.2,1-2.3,1.8-3.4c1-1.3,2.6-2.1,4.3-2&#10;&#9;&#9;c0.4,0,0.6,0.3,0.6,0.7c0,1.3-0.3,2.6-0.8,3.8c3.4-1.1,7-0.9,10.3,0.4l0,0c0.3,0.2,0.5,0.6,0.4,0.9c-0.1,0.2-0.3,0.4-0.5,0.4&#10;&#9;&#9;c-0.4,0.1-2.8,1.1-3.8,1.5l-0.6,0.3c-1.6,0.6-3.1,1.4-4.5,2.2c1.9,1.6,3.4,3.6,4.3,5.8c0.1,0.3,0.1,0.5-0.1,0.8&#10;&#9;&#9;c-0.5,0.6-6.3-0.6-6.4-0.6c-2.1-0.7-4-1.8-5.7-3.2l-2.8,5.1C235.1,133.4,234.8,133.6,234.6,133.6z M237.8,126.3&#10;&#9;&#9;c0.2,0,0.4,0.1,0.5,0.2c1.7,1.6,3.7,2.8,5.9,3.5c0.3,0.1,2.7,0.4,4.2,0.6c-1-1.9-2.4-3.5-4.1-4.8c-0.3-0.2-0.4-0.7-0.2-1&#10;&#9;&#9;c0-0.1,0.1-0.1,0.2-0.2c1.8-1.2,3.6-2.1,5.6-2.9l0.6-0.3l2.1-0.8c-3.1-0.7-6.3-0.4-9.2,0.9c-0.3,0.1-0.6,0-0.8-0.2&#10;&#9;&#9;c-0.2-0.3-0.2-0.6,0-0.8c0.8-1.2,1.3-2.6,1.5-4c-1,0.2-1.8,0.7-2.4,1.5c-0.8,1.1-1.4,2.3-1.8,3.6c-0.1,0.4-0.5,0.5-0.9,0.4&#10;&#9;&#9;c0,0,0,0,0,0c-2.9-1-6-1.1-8.9-0.2c2.3,0.6,4.6,1,6.9,1.3c0.3,0,0.5,0.2,0.6,0.5c0.1,0.3,0,0.6-0.2,0.7c-1.6,1.4-2,3.6-2.1,6l2-3.6&#10;&#9;&#9;C237.3,126.5,237.5,126.3,237.8,126.3L237.8,126.3z"/>
	<path class="st0_meal-53" d="M288.2,131.9c1.1-1.5,1.6-3.3,1.6-5.1c-1.5-0.1-2.8,0.6-3.7,1.7c-0.8,1.2-1.5,2.4-1.9,3.8&#10;&#9;&#9;c-3.7-1.3-7.8-1.2-11.4,0.5c2.9,0.9,6,1.5,9,1.9c-2.5,2.1-2.4,5.9-2.2,9.1l3.2-5.9c1.7,1.7,3.8,2.9,6.1,3.6&#10;&#9;&#9;c0.6,0.2,5.6,0.8,5.6,0.8c-1.1-2.5-2.8-4.6-4.9-6.2c1.7-1.1,3.6-2.1,5.5-2.8c0.5-0.2,4.5-1.8,4.5-1.8&#10;&#9;&#9;C296.3,130,291.7,130.4,288.2,131.9z"/>
	<path class="st1_meal-53" d="M279.7,144.5h-0.1c-0.3-0.1-0.5-0.3-0.5-0.6c-0.2-3.2-0.1-6.4,1.5-8.6c-2.6-0.4-5.2-1-7.8-1.8&#10;&#9;&#9;c-0.3-0.1-0.5-0.3-0.5-0.6c0-0.3,0.1-0.6,0.4-0.7c3.5-1.6,7.5-1.9,11.2-0.8c0.4-1.2,1-2.4,1.8-3.4c1-1.3,2.6-2.1,4.3-2&#10;&#9;&#9;c0.4,0,0.6,0.3,0.6,0.7c0,1.3-0.3,2.6-0.8,3.8c3.4-1.1,7-0.9,10.3,0.4l0,0c0.4,0.2,0.5,0.6,0.3,0.9c-0.1,0.2-0.3,0.3-0.5,0.4&#10;&#9;&#9;c-0.4,0.1-2.8,1.1-3.8,1.5l-0.6,0.3c-1.6,0.6-3.1,1.4-4.5,2.2c1.9,1.6,3.4,3.6,4.3,5.9c0.1,0.3,0.1,0.5-0.1,0.8&#10;&#9;&#9;c-0.5,0.6-6.3-0.6-6.4-0.6c-2.1-0.7-4.1-1.8-5.7-3.2l-2.8,5.1C280.2,144.4,279.9,144.5,279.7,144.5z M282.9,137.3&#10;&#9;&#9;c0.2,0,0.4,0.1,0.5,0.2c1.7,1.6,3.7,2.8,5.9,3.5c0.3,0.1,2.7,0.4,4.2,0.6c-1-1.9-2.4-3.5-4.1-4.8c-0.2-0.1-0.3-0.4-0.3-0.6&#10;&#9;&#9;c0-0.2,0.1-0.4,0.3-0.6c1.8-1.1,3.6-2.1,5.6-2.9l0.6-0.2l2.1-0.8c-3.1-0.7-6.3-0.4-9.2,0.9c-0.3,0.1-0.6,0-0.8-0.2&#10;&#9;&#9;c-0.2-0.2-0.2-0.6,0-0.8c0.8-1.2,1.3-2.6,1.5-4c-1,0.2-1.8,0.7-2.4,1.5c-0.8,1.1-1.4,2.3-1.8,3.6c-0.1,0.4-0.5,0.5-0.9,0.4&#10;&#9;&#9;c-2.9-1-6-1.1-8.9-0.2c2.3,0.6,4.6,1,6.9,1.3c0.3,0,0.5,0.2,0.6,0.5c0.1,0.3,0,0.6-0.2,0.7c-1.6,1.4-2,3.6-2.1,6l2-3.6&#10;&#9;&#9;C282.4,137.4,282.6,137.3,282.9,137.3L282.9,137.3z"/>
	
		<ellipse transform="matrix(0.1602 -0.9871 0.9871 0.1602 53.8943 394.1652)" class="st1_meal-53" cx="258.6" cy="165.4" rx="11.2" ry="11.2"/>
	<path class="st1_meal-53" d="M258.6,177.4c-6.6,0-12-5.4-12-12s5.4-12,12-12s12,5.4,12,12c0,2.7-0.9,5.3-2.5,7.4l0,0&#10;&#9;&#9;C265.8,175.7,262.3,177.4,258.6,177.4z M258.6,154.9c-5.8,0-10.5,4.7-10.5,10.5c0,5.8,4.7,10.5,10.5,10.5c5.8,0,10.5-4.7,10.5-10.5&#10;&#9;&#9;c0-3.2-1.5-6.3-4-8.3C263.2,155.7,260.9,154.9,258.6,154.9L258.6,154.9z M267.4,172.3L267.4,172.3z"/>
	<path class="st0_meal-53" d="M264.2,162.3c0.8-1.1,1.2-2.5,1.2-3.9c-1.1-0.1-2.2,0.4-2.8,1.3c-0.6,0.9-1.1,1.8-1.5,2.9&#10;&#9;&#9;c-2.8-1-5.9-0.9-8.6,0.4c2.2,0.7,4.5,1.2,6.8,1.5c-1.9,1.6-1.9,4.4-1.7,6.9l2.4-4.4c1.3,1.3,2.9,2.2,4.6,2.8&#10;&#9;&#9;c0.5,0.1,4.3,0.6,4.3,0.6c-0.8-1.9-2.1-3.5-3.7-4.7c1.3-0.9,2.7-1.6,4.1-2.1c0.4-0.1,3.4-1.3,3.4-1.3&#10;&#9;&#9;C270.1,161,266.9,161,264.2,162.3z"/>
	<path class="st1_meal-53" d="M257.7,172.1h-0.1c-0.3-0.1-0.5-0.3-0.5-0.6c-0.2-2.3-0.1-4.7,1-6.4c-1.9-0.3-3.8-0.7-5.7-1.3&#10;&#9;&#9;c-0.3-0.1-0.5-0.3-0.5-0.6c0-0.3,0.1-0.6,0.4-0.7c2.7-1.2,5.7-1.5,8.5-0.6c0.3-0.9,0.8-1.7,1.3-2.4c0.8-1.1,2.1-1.7,3.4-1.6&#10;&#9;&#9;c0.4,0,0.6,0.3,0.6,0.7c0,0.9-0.2,1.8-0.5,2.6c2.5-0.7,5.2-0.6,7.6,0.4l0,0c0.4,0.2,0.5,0.6,0.3,0.9c-0.1,0.2-0.3,0.3-0.5,0.4&#10;&#9;&#9;c-0.3,0.1-2.1,0.8-2.8,1.1l-0.5,0.2c-1.1,0.4-2.2,1-3.2,1.6c1.4,1.2,2.4,2.7,3.2,4.3c0.1,0.3,0.1,0.5-0.1,0.8c-0.5,0.6-5-0.4-5-0.4&#10;&#9;&#9;c-1.5-0.5-3-1.3-4.2-2.3l-2,3.7C258.2,171.9,258,172.1,257.7,172.1z M260.1,166.2c0.2,0,0.4,0.1,0.5,0.2c1.2,1.2,2.7,2.1,4.4,2.6&#10;&#9;&#9;c0.2,0.1,1.7,0.3,2.8,0.4c-0.7-1.3-1.7-2.4-2.9-3.3c-0.2-0.1-0.3-0.4-0.3-0.6c0-0.2,0.2-0.4,0.4-0.6c1.3-0.9,2.8-1.6,4.3-2.2&#10;&#9;&#9;l0.5-0.2l1-0.4c-2.1-0.4-4.4-0.1-6.4,0.8c-0.3,0.1-0.6,0-0.8-0.2c-0.2-0.3-0.2-0.6,0-0.9c0.6-0.8,0.9-1.7,1.1-2.7&#10;&#9;&#9;c-0.6,0.2-1.1,0.5-1.5,1c-0.6,0.8-1,1.7-1.3,2.7c-0.1,0.4-0.5,0.6-0.9,0.4c0,0,0,0,0,0c-1.9-0.7-4-0.8-6-0.4c1.5,0.4,3,0.7,4.6,0.9&#10;&#9;&#9;c0.3,0,0.5,0.2,0.6,0.5c0.1,0.3,0,0.6-0.2,0.7c-1,1-1.5,2.3-1.5,3.7l1.1-2.1C259.7,166.4,259.9,166.2,260.1,166.2L260.1,166.2z"/>
</g>
</svg>